<svg width="134" height="62" viewBox="0 0 134 62" fill="none" xmlns="http://www.w3.org/2000/svg">
<path d="M115.354 23.9835C108.7 24.3889 111.689 33.07 119.053 32.614C126.248 32.158 122.448 23.5444 115.354 23.9835Z" fill="#F19021"/>
<path d="M112.551 18.6294C100.711 18.6294 91.1011 28.2394 91.1011 40.0789C91.1011 51.9183 100.711 61.5283 112.551 61.5283C124.39 61.5283 134 51.9183 134 40.0789C134 28.2225 124.39 18.6294 112.551 18.6294ZM112.551 59.282C101.944 59.282 93.3474 50.6854 93.3474 40.0957C93.3474 29.5061 101.944 20.8926 112.534 20.8926C123.123 20.8926 131.737 29.4724 131.737 40.0789C131.737 50.6854 123.14 59.282 112.551 59.282Z" fill="#F19021"/>
<path d="M111.892 3.6481C106.791 7.49887 107.686 13.3932 107.686 13.3932C107.686 13.3932 104.477 5.08369 100.323 0C99.7653 6.53618 101.809 15.2004 101.809 15.2004C101.809 15.2004 99.208 9.8296 92.8238 9.52559C98.1102 12.5657 100.171 18.0378 100.627 19.5072C103.785 17.5649 107.382 16.4671 111.081 16.3489C110.693 14.9977 109.206 9.23847 111.892 3.6481Z" fill="#F19021"/>
<path d="M1.87472 42.1728V46.6654H0V35.0962H3.93522C5.26947 35.0962 6.26594 35.4171 6.94152 36.042C7.61709 36.6838 7.95488 37.5451 7.95488 38.6429C7.95488 39.7407 7.61709 40.6021 6.92463 41.227C6.23217 41.8519 5.23569 42.1728 3.9521 42.1728H1.87472ZM6.04638 38.6598C6.04638 38.0012 5.8606 37.5114 5.50592 37.1567C5.13436 36.8189 4.56012 36.6331 3.74943 36.6331H1.87472V40.6528H3.74943C5.26947 40.6528 6.04638 39.9941 6.04638 38.6598Z" fill="black"/>
<path d="M15.6564 46.6654L12.7683 42.0546H11.4341V46.6654H9.57623V35.0962H13.6635C14.9808 35.0962 15.9942 35.4171 16.6698 36.0589C17.3453 36.7007 17.7 37.562 17.7 38.6092C17.7 39.5043 17.4467 40.2474 16.94 40.8386C16.4333 41.4297 15.7071 41.8012 14.7444 41.9532L17.7845 46.6485H15.6564V46.6654ZM11.451 40.7203H13.5114C15.0146 40.7203 15.7746 40.0616 15.7746 38.7274C15.7746 38.1025 15.5888 37.5958 15.2342 37.2411C14.8626 36.8865 14.3052 36.7176 13.5283 36.7176H11.451V40.7203Z" fill="black"/>
<path d="M26.2799 44.166H21.3988L20.5206 46.6656H18.5276L22.7838 35.2822H24.9287L29.1679 46.6656H27.175L26.2799 44.166ZM25.7563 42.7135L23.8309 37.3089L21.9055 42.7135H25.7563Z" fill="black"/>
<path d="M38.5921 36.0254C39.5042 36.701 40.1459 37.6805 40.4162 38.7952H38.457C38.2037 38.1872 37.7814 37.6636 37.2241 37.309C36.6161 36.9205 35.9067 36.7347 35.1805 36.7516C34.5049 36.7347 33.8293 36.9205 33.2382 37.2583C32.664 37.5961 32.1911 38.1028 31.904 38.6939C31.5662 39.3864 31.4142 40.1295 31.4311 40.8895C31.4142 41.6833 31.5831 42.4602 31.9208 43.1696C32.2249 43.7776 32.7146 44.2843 33.3058 44.6221C33.9476 44.9598 34.6569 45.1456 35.3832 45.1287C36.2952 45.1456 37.1734 44.8247 37.849 44.2167C38.5415 43.6256 38.9468 42.798 39.0988 41.7678H34.8596V40.3997H40.6695V42.19C40.5513 43.0176 40.2304 43.8114 39.7575 44.5038C39.2677 45.1963 38.6259 45.7705 37.8828 46.1759C37.0552 46.5981 36.1263 46.8177 35.1974 46.8008C34.1502 46.8177 33.12 46.5643 32.208 46.0408C31.3635 45.551 30.6541 44.8247 30.215 43.9465C29.2692 42.0211 29.2692 39.7579 30.215 37.8325C30.671 36.9712 31.3635 36.2449 32.208 35.7552C33.12 35.2485 34.1502 34.9951 35.1805 35.012C36.5316 35.012 37.6801 35.3498 38.5921 36.0254Z" fill="black"/>
<path d="M53.8263 35.2822V46.6656H51.9347V38.1365L48.6413 46.6656H47.003L43.6927 38.1365V46.6656H41.8349V35.2822H44.0981L47.8644 44.3687L51.5632 35.2822H53.8263Z" fill="black"/>
<path d="M62.9803 44.166H58.0993L57.221 46.6656H55.2112L59.4673 35.2822H61.6123L65.8515 46.6656H63.8586L62.9803 44.166ZM62.4567 42.7135L60.5314 37.3089L58.606 42.7135H62.4567Z" fill="black"/>
<path d="M73.8571 35.0962V36.5993H70.6312V46.6654H68.7396V36.5993H65.5306V35.0962H73.8571Z" fill="black"/>
<path d="M76.7114 35.0962V46.6654H74.8535V35.0962H76.7114Z" fill="black"/>
<path d="M87.2841 36.0592C88.2299 36.7854 88.9055 37.8326 89.1757 38.9979H87.1997C86.9463 38.3224 86.4903 37.7481 85.8992 37.3259C85.2574 36.9037 84.4805 36.6841 83.7036 36.7179C83.0618 36.701 82.42 36.8868 81.8626 37.2246C81.3053 37.5792 80.8662 38.0859 80.5791 38.677C79.9542 40.0789 79.9542 41.6665 80.5791 43.0683C80.8662 43.6594 81.3053 44.1661 81.8626 44.5208C82.42 44.8585 83.0618 45.0443 83.7036 45.0274C84.4805 45.0612 85.2405 44.8416 85.8992 44.4194C86.4903 44.0141 86.9463 43.4398 87.1997 42.7643H89.1757C88.8886 43.9296 88.2299 44.9599 87.2841 45.6861C86.3383 46.3955 85.1729 46.767 83.7374 46.767C82.724 46.7839 81.7106 46.5306 80.8324 46.0239C79.9879 45.5341 79.3124 44.8079 78.8901 43.9465C77.9781 42.0211 77.9781 39.7749 78.8901 37.8326C79.3293 36.9712 80.0048 36.245 80.8324 35.7383C81.7106 35.2316 82.7071 34.9614 83.7374 34.9783C85.1729 34.9783 86.3383 35.3498 87.2841 36.0592Z" fill="black"/>
<path d="M97.992 42.1728V46.6654H96.1341V35.0962H100.069C101.404 35.0962 102.4 35.4171 103.076 36.042C103.751 36.6838 104.089 37.5451 104.089 38.6429C104.089 39.7407 103.751 40.6021 103.059 41.227C102.366 41.8519 101.37 42.1728 100.069 42.1728H97.992ZM102.181 38.6598C102.181 38.0012 101.995 37.5114 101.64 37.1567C101.268 36.8189 100.694 36.6331 99.8836 36.6331H98.0088V40.6528H99.8836C101.404 40.6528 102.181 39.9941 102.181 38.6598Z" fill="black"/>
<path d="M107.281 45.2129H111.284V46.6654H105.423V35.0962H107.298V45.2129H107.281Z" fill="black"/>
<path d="M119.83 44.166H114.949L114.071 46.6656H112.078L116.334 35.2822H118.479L122.718 46.6656H120.725L119.83 44.166ZM119.306 42.7135L117.398 37.3089L115.489 42.7135H119.306Z" fill="black"/>
<path d="M130.217 35.0962L126.366 42.4599V46.6654H124.491V42.4599L120.624 35.0962H122.785L125.437 40.4501L128.089 35.0962H130.217Z" fill="black"/>
</svg>
