<svg width="121" height="46" viewBox="0 0 121 46" fill="none" xmlns="http://www.w3.org/2000/svg">
<g clip-path="url(#clip0_2482_16660)">
<path d="M64.3649 17.1423C64.3649 11.9584 64.382 6.76788 64.3478 1.58403C64.3421 0.815805 64.5248 0.615398 65.1642 0.642119C66.5287 0.702241 67.9046 0.708921 69.2691 0.642119C69.9884 0.602038 70.114 0.909328 70.1083 1.67755C70.0741 5.26483 70.114 8.84543 70.0798 12.4327C70.0741 13.2143 70.2739 13.3947 70.9019 13.3746C72.5975 13.3279 74.2989 13.3212 75.9945 13.3746C76.6225 13.3947 76.828 13.221 76.8223 12.4394C76.7823 8.82539 76.828 5.20471 76.7881 1.59071C76.7823 0.809124 76.9822 0.628758 77.6102 0.655479C79.0318 0.708921 80.459 0.695561 81.8806 0.655479C82.3887 0.642119 82.5315 0.822485 82.5315 1.41034C82.5201 11.9718 82.5143 22.5399 82.5372 33.1013C82.5372 33.7626 82.3488 33.9096 81.835 33.8963C80.4134 33.8629 78.9861 33.8428 77.5645 33.9029C76.9308 33.9297 76.7881 33.6958 76.7938 32.9877C76.8223 28.7324 76.7881 24.4705 76.828 20.2152C76.8337 19.32 76.6168 19.0795 75.8632 19.1062C74.1961 19.173 72.5233 19.1664 70.8562 19.1129C70.2168 19.0929 70.0855 19.3401 70.0912 20.0348C70.114 24.3235 70.0855 28.6122 70.1198 32.9009C70.1255 33.7226 69.9085 33.9163 69.2463 33.8896C67.8818 33.8361 66.5059 33.8361 65.1414 33.8896C64.5362 33.9096 64.3535 33.7226 64.3592 32.9877C64.3763 27.7037 64.3649 22.4263 64.3649 17.1423Z" fill="#040404"/>
<path d="M45.5474 23.508C46.2896 23.508 47.0261 23.5414 47.7626 23.4946C48.265 23.4612 48.4363 23.6416 48.4192 24.2428C48.3906 25.4319 48.4591 26.6076 48.8987 27.7165C49.1671 28.3912 49.5667 28.8655 50.1433 29.1662C52.0844 30.1815 54.3738 29.4668 55.2016 27.5763C56.1722 25.3584 55.4586 22.6797 53.5631 21.3637C52.113 20.3549 50.4745 19.9074 48.9444 19.1325C48.3678 18.8385 47.7911 18.5513 47.2431 18.1972C42.9441 15.4249 41.6138 8.35059 44.5084 3.64771C45.5988 1.87077 47.1175 0.848699 48.9216 0.414484C51.7191 -0.266898 54.4823 -0.200096 57.0914 1.32967C60.0145 3.04649 60.6996 6.10603 60.6767 9.43946C60.671 9.88036 60.4541 9.87368 60.1972 9.87368C58.6614 9.87368 57.1313 9.86032 55.5956 9.88036C55.2074 9.88704 55.1446 9.68663 55.1446 9.30586C55.1388 8.92509 55.0932 8.53763 55.0361 8.16354C54.6079 5.37789 52.5526 4.12869 50.3489 5.32445C49.9435 5.54489 49.6067 5.87222 49.3555 6.29976C48.2536 8.1769 48.756 11.3366 50.4288 12.499C52.2158 13.7482 54.2025 14.5164 56.098 15.5185C60.7338 17.9567 62.1897 20.9628 61.4018 26.8014C60.9336 30.2751 59.2095 32.6065 56.3149 33.6419C53.6659 34.5972 50.9654 34.6373 48.2707 33.9826C45.1307 33.221 43.3437 30.9431 42.8128 27.2088C42.6643 26.1601 42.7043 25.1046 42.6872 24.0491C42.6757 23.6283 42.8185 23.4946 43.1667 23.5013C43.9546 23.5214 44.7539 23.508 45.5474 23.508Z" fill="#040404"/>
<path d="M29.9158 45.9936C27.7806 45.9936 25.6454 46.0003 23.5102 45.9869C21.786 45.9802 20.5871 44.6709 20.5757 42.6535C20.5471 37.5965 20.5528 32.5396 20.5871 27.4827C20.5985 25.4719 21.7974 24.1225 23.5102 24.1158C27.8092 24.0958 32.1082 24.0958 36.4014 24.1225C38.0742 24.1292 39.256 25.4653 39.2674 27.4292C39.3017 32.5196 39.3074 37.6099 39.2732 42.6935C39.2617 44.711 38.0685 45.9802 36.3272 45.9869C34.1863 46.0003 32.0511 45.9936 29.9158 45.9936ZM29.9044 27.6697C29.8131 27.8768 29.7731 28.0371 29.6875 28.1574C28.0661 30.3819 26.439 32.6064 24.8004 34.8176C24.5721 35.1249 24.5835 35.3052 24.8118 35.6192C26.4504 37.8303 28.0661 40.0549 29.6818 42.2861C29.9158 42.6067 30.03 42.6334 30.2869 42.2727C31.8969 40.0415 33.5297 37.8237 35.174 35.6192C35.4023 35.3119 35.4081 35.1315 35.1797 34.8242C33.5354 32.6198 31.9083 30.4019 30.2812 28.1908C30.1956 28.0772 30.11 27.957 29.9044 27.6697Z" fill="#E01C24"/>
<path d="M29.9787 0.173672C32.0626 0.173672 34.1407 0.166992 36.2246 0.173672C38.1714 0.180353 39.2618 1.44959 39.2676 3.74759C39.279 8.67759 39.279 13.6076 39.2676 18.5376C39.2618 20.6753 38.12 22.0113 36.2931 22.018C32.074 22.0314 27.8607 22.0314 23.6416 22.018C21.729 22.0113 20.57 20.6619 20.5643 18.4307C20.5586 13.5608 20.5586 8.69763 20.5643 3.82775C20.57 1.46964 21.7062 0.166992 23.7329 0.166992C25.8168 0.166992 27.8949 0.166992 29.9787 0.173672ZM29.5506 14.0953C29.4706 15.7252 29.4478 17.3819 28.4373 18.8048C29.5106 18.8048 30.4983 18.8048 31.5602 18.8048C30.4469 17.3686 30.5497 15.605 30.3099 13.9349C30.5154 13.9082 30.5268 14.0552 30.5839 14.1554C31.4232 15.5916 32.7819 16.0993 34.0094 15.4313C35.2083 14.7766 35.8364 13.14 35.4481 11.6503C35.0656 10.1873 33.8496 9.33226 32.4166 9.50594C32.2567 9.52598 32.0569 9.77983 31.9256 9.45918C31.8114 9.16525 32.0968 9.11181 32.1825 8.95148C32.9418 7.54864 32.7077 5.77838 31.6002 4.72958C30.5896 3.77431 29.0938 3.86783 28.1575 4.94335C27.1641 6.09235 27.0728 7.78912 27.912 9.12517C28.0319 9.3189 28.3516 9.43246 28.2203 9.80655C26.8216 9.09177 25.4057 9.64623 24.7206 11.1626C24.0869 12.5655 24.4922 14.3625 25.6341 15.2175C26.9015 16.1661 28.3745 15.7319 29.5506 14.0953Z" fill="#040404"/>
<path d="M18.7543 35.1119C18.7543 37.5435 18.7657 39.9751 18.7543 42.4067C18.7429 44.6846 17.6467 45.9806 15.7113 45.9873C11.4694 45.9939 7.22752 45.9939 2.98561 45.9873C1.26145 45.9873 0.0282657 44.5911 0.0168474 42.5603C-0.000280123 37.5702 -0.000280123 32.5801 0.0225565 27.5899C0.0339749 25.5525 1.24432 24.1496 2.9799 24.1363C7.25036 24.1095 11.5151 24.1095 15.7856 24.1363C17.6239 24.1496 18.7315 25.479 18.7486 27.63C18.7715 30.1217 18.7543 32.6201 18.7543 35.1119ZM9.31708 27.316C8.51779 29.5005 7.28461 30.9968 6.06285 32.4999C5.30924 33.4284 4.57847 34.3704 4.17883 35.5995C3.53369 37.6103 4.32727 39.9283 5.92012 40.6498C7.21039 41.2309 8.18095 40.6631 9.07158 39.2469C8.92885 40.7166 8.62056 41.8255 7.9583 42.7807C8.91743 42.7807 9.81377 42.7807 10.7843 42.7807C10.0136 41.7988 9.65963 40.7433 9.6425 39.3271C10.4189 40.6564 11.361 41.1775 12.5485 40.7232C13.8616 40.2222 14.4953 39.0265 14.6551 37.49C14.8321 35.8266 14.1242 34.5374 13.2393 33.3616C11.8577 31.5045 10.2305 29.8612 9.31708 27.316Z" fill="#040404"/>
<path d="M18.7487 11.143C18.7487 13.608 18.703 16.073 18.7601 18.538C18.8115 20.6757 17.3671 22.0719 15.7114 22.0652C11.4923 22.0518 7.27897 22.0785 3.05989 22.0518C1.2558 22.0518 0.0169099 20.5822 0.0112007 18.4913C-0.000217627 13.5613 -0.00592679 8.63125 0.00549154 3.70125C0.0112007 1.63038 1.22725 0.194133 2.97997 0.187453C7.25042 0.174093 11.5266 0.167412 15.797 0.187453C17.6525 0.194133 18.7258 1.47674 18.7373 3.66117C18.7544 6.15289 18.743 8.64461 18.7487 11.143C18.743 11.143 18.7487 11.143 18.7487 11.143ZM9.33426 18.1906C10.3562 16.4338 11.7264 15.2313 12.8054 13.7283C14.1414 11.8712 15.2204 9.95394 14.4325 7.31525C13.6218 4.60308 11.4181 3.84153 9.71678 5.8122C9.28859 6.31322 9.13444 6.04601 8.83757 5.70532C7.55301 4.22899 6.02295 4.34255 4.8697 5.96584C3.56801 7.78954 3.64223 10.3013 5.04097 12.5926C6.27986 14.6101 8.03828 16.0797 9.33426 18.1906Z" fill="#E01C24"/>
<path d="M86.5849 17.1885C86.5849 12.0314 86.6078 6.88095 86.5621 1.72382C86.5564 0.808627 86.7962 0.628261 87.527 0.634942C92.2656 0.675023 96.9985 0.668343 101.737 0.634942C102.359 0.628261 102.536 0.821988 102.508 1.53677C102.456 2.77929 102.451 4.03517 102.508 5.2777C102.542 6.03924 102.302 6.17285 101.714 6.16617C98.8369 6.13276 95.9651 6.17285 93.0877 6.13276C92.4768 6.12608 92.2884 6.30645 92.3056 7.03459C92.3512 9.08542 92.3398 11.1296 92.3113 13.1804C92.2998 13.8083 92.4483 13.9954 92.9964 13.9887C95.7082 13.9553 98.4201 13.9887 101.126 13.9553C101.726 13.9486 101.931 14.1023 101.897 14.8438C101.834 16.1197 101.846 17.4023 101.897 18.6849C101.92 19.3396 101.72 19.4732 101.2 19.4665C98.4886 19.4398 95.7767 19.4798 93.0706 19.4331C92.4426 19.4197 92.3056 19.6402 92.3056 20.3483C92.3341 24.5435 92.2998 28.7386 92.3398 32.9271C92.3455 33.7087 92.14 33.8958 91.512 33.8757C90.1418 33.8223 88.7716 33.8089 87.4071 33.8824C86.6706 33.9225 86.5678 33.5818 86.5735 32.8336C86.5964 27.623 86.5849 22.4058 86.5849 17.1885Z" fill="#040404"/>
<path d="M105.111 17.2951C105.111 12.0444 105.123 6.80044 105.1 1.54978C105.094 0.8684 105.208 0.607872 105.853 0.634592C107.246 0.701395 108.645 0.701395 110.038 0.634592C110.718 0.601191 110.843 0.8684 110.838 1.59654C110.815 10.1739 110.838 18.7513 110.809 27.3221C110.809 28.1504 110.957 28.4043 111.7 28.3909C114.543 28.3375 117.392 28.3909 120.24 28.3508C120.874 28.3441 121.028 28.5579 121 29.266C120.954 30.5419 120.966 31.8245 120.994 33.1071C121.006 33.6683 120.897 33.882 120.366 33.882C115.496 33.8553 110.621 33.8553 105.751 33.8887C105.134 33.8954 105.111 33.5814 105.111 33.0403C105.117 27.7964 105.111 22.5457 105.111 17.2951Z" fill="#040404"/>
<path d="M29.9044 27.6699C30.1157 27.9572 30.1956 28.0774 30.2812 28.191C31.9141 30.4021 33.5412 32.62 35.1797 34.8244C35.4081 35.1317 35.4023 35.3121 35.174 35.6194C33.5355 37.8239 31.8969 40.035 30.2869 42.2729C30.03 42.6269 29.9158 42.6069 29.6818 42.2862C28.0661 40.055 26.4504 37.8305 24.8119 35.6194C24.5835 35.3054 24.5721 35.125 24.8004 34.8178C26.439 32.6066 28.0604 30.3821 29.6875 28.1576C29.7731 28.0373 29.8131 27.8703 29.9044 27.6699Z" fill="#FDFDFD"/>
<path d="M29.5506 14.0958C28.3745 15.7325 26.9015 16.1667 25.6341 15.2114C24.4923 14.3497 24.0926 12.5594 24.7206 11.1565C25.4057 9.64679 26.8216 9.08565 28.2203 9.80044C28.3517 9.42635 28.0319 9.3061 27.912 9.11906C27.0728 7.78301 27.1584 6.08624 28.1575 4.93724C29.0938 3.86172 30.5896 3.7682 31.6002 4.72347C32.702 5.77894 32.9418 7.5492 32.1768 8.95205C32.0854 9.11906 31.8 9.1725 31.9199 9.45975C32.0512 9.78708 32.251 9.52655 32.4109 9.50651C33.8439 9.33282 35.0656 10.1879 35.4424 11.6509C35.8307 13.1405 35.2084 14.7772 34.0037 15.4319C32.782 16.0999 31.4175 15.5922 30.5782 14.1559C30.5211 14.0557 30.5154 13.9088 30.3042 13.9355C30.544 15.6055 30.4412 17.3691 31.5545 18.8054C30.4926 18.8054 29.5049 18.8054 28.4316 18.8054C29.4478 17.3825 29.4649 15.7258 29.5506 14.0958Z" fill="#FDFDFD"/>
<path d="M9.31735 27.3154C10.2365 29.8673 11.8579 31.5039 13.251 33.361C14.1302 34.5367 14.8438 35.8327 14.6668 37.4894C14.5013 39.0192 13.8733 40.2216 12.5602 40.7226C11.3726 41.1769 10.4306 40.6625 9.65419 39.3265C9.67131 40.7494 10.0253 41.7982 10.796 42.7801C9.82546 42.7801 8.92341 42.7801 7.96998 42.7801C8.63225 41.8249 8.94054 40.716 9.08327 39.2463C8.19264 40.6625 7.22208 41.2303 5.93181 40.6492C4.33325 39.9277 3.53967 37.603 4.19052 35.5989C4.58445 34.3697 5.32093 33.4278 6.07454 32.4993C7.28488 30.9896 8.51806 29.4999 9.31735 27.3154Z" fill="#FDFDFD"/>
<path d="M9.33432 18.1903C8.03834 16.0861 6.27992 14.6164 5.04103 12.5856C3.64229 10.2943 3.57378 7.78255 4.86976 5.95885C6.02301 4.34224 7.55306 4.22868 8.83763 5.69832C9.1345 6.03902 9.28865 6.30622 9.71684 5.80521C11.4182 3.83454 13.6219 4.60277 14.4326 7.30826C15.2205 9.94694 14.1471 11.8642 12.8055 13.7213C11.7265 15.2243 10.362 16.4268 9.33432 18.1903Z" fill="#FDFDFD"/>
<path d="M43.144 41.8119C43.144 40.5493 43.401 39.554 43.9148 38.8392C44.4286 38.1177 45.1765 37.7637 46.1585 37.7637C46.6266 37.7637 47.0263 37.8505 47.3631 38.0175C47.6999 38.1845 47.9854 38.4117 48.2138 38.6989C48.4421 38.9795 48.6134 39.3135 48.7219 39.6943C48.8304 40.075 48.8875 40.4825 48.8875 40.9101C48.8875 41.0103 48.8875 41.1105 48.8817 41.2107C48.876 41.3109 48.8703 41.4111 48.8646 41.5113C48.3908 41.4979 47.9226 41.4912 47.4545 41.4779C46.9863 41.4645 46.5182 41.4645 46.0443 41.4645C45.7531 41.4645 45.4677 41.4712 45.1822 41.4779C44.8968 41.4912 44.6113 41.4979 44.3201 41.5113C44.3087 41.5647 44.3087 41.6382 44.3087 41.7451V41.9455C44.3087 42.3463 44.3601 42.7204 44.4629 43.0678C44.5656 43.4151 44.7084 43.7158 44.9025 43.9696C45.0966 44.2234 45.3307 44.4239 45.6161 44.5708C45.8959 44.7178 46.2213 44.7913 46.5924 44.7913C46.7694 44.7913 46.9463 44.7645 47.1347 44.7044C47.3174 44.651 47.5001 44.5708 47.6771 44.4706C47.8541 44.3704 48.0197 44.2568 48.1738 44.1232C48.328 43.9896 48.4593 43.8427 48.5735 43.689L48.642 43.7358L48.562 44.4907C48.2994 44.7378 47.974 44.9449 47.5801 45.1253C47.1918 45.299 46.7808 45.3858 46.364 45.3858C45.8901 45.3858 45.4563 45.299 45.068 45.132C44.6798 44.965 44.3373 44.7178 44.0518 44.3905C43.7663 44.0698 43.5494 43.6823 43.3952 43.2415C43.2183 42.8006 43.144 42.3196 43.144 41.8119ZM46.187 38.2513C45.8616 38.2513 45.5876 38.3382 45.3649 38.5119C45.1422 38.6855 44.9538 38.906 44.8111 39.1665C44.6684 39.427 44.5542 39.7143 44.48 40.0283C44.4058 40.3422 44.3601 40.6362 44.343 40.9167C44.617 40.9301 44.8968 40.9368 45.1936 40.9501C45.4905 40.9635 45.776 40.9635 46.0557 40.9635C46.3469 40.9635 46.638 40.9568 46.9406 40.9501C47.2375 40.9368 47.5287 40.9301 47.8084 40.9167C47.8084 40.6362 47.7913 40.3489 47.7513 40.0349C47.7114 39.7277 47.6314 39.4404 47.5115 39.1732C47.3917 38.906 47.2261 38.6855 47.0149 38.5119C46.8036 38.3382 46.5296 38.2513 46.187 38.2513Z" fill="black"/>
<path d="M54.1799 39.1533C53.923 38.7592 53.5747 38.5588 53.1237 38.5588C52.5071 38.5588 52.0561 38.7792 51.7764 39.2201C51.4909 39.661 51.3482 40.2823 51.3482 41.0839V42.3932C51.3482 42.8542 51.3539 43.3418 51.3653 43.8495C51.3767 44.3572 51.4053 44.8181 51.4509 45.2256C51.2511 45.2056 51.0513 45.1922 50.8572 45.1922C50.6631 45.1922 50.469 45.2056 50.2634 45.2256C50.3091 44.8181 50.3376 44.3572 50.3491 43.8495C50.3605 43.3418 50.3662 42.8542 50.3662 42.3932V40.79C50.3662 40.329 50.3605 39.8414 50.3491 39.3337C50.3376 38.826 50.3091 38.3517 50.2634 37.9108C50.5089 37.9642 50.7087 37.991 50.8572 37.991C50.9257 37.991 51.0056 37.9843 51.0855 37.9709C51.1712 37.9576 51.2682 37.9375 51.3824 37.9175C51.3539 38.3316 51.3425 38.7391 51.3425 39.1533H51.371C51.6165 38.7124 51.9134 38.3717 52.2559 38.1312C52.5985 37.8907 53.0038 37.7705 53.4834 37.7705C53.7289 37.7705 53.9801 37.8106 54.2256 37.8908C54.4768 37.9709 54.6995 38.1112 54.905 38.3116C55.1048 38.512 55.2704 38.7859 55.4017 39.1266C55.5273 39.474 55.5901 39.9082 55.5901 40.4426C55.5901 40.8835 55.5787 41.3377 55.5615 41.8054C55.5444 42.273 55.533 42.7673 55.533 43.295V44.2971C55.533 44.4641 55.533 44.6244 55.5387 44.7847C55.5444 44.9451 55.5501 45.0987 55.5558 45.239C55.3788 45.219 55.1962 45.2056 55.002 45.2056C54.8193 45.2056 54.6367 45.219 54.4597 45.239C54.4768 44.7046 54.4996 44.1568 54.5168 43.589C54.5396 43.0212 54.551 42.4467 54.551 41.8454V40.9035C54.5624 40.1286 54.4368 39.5474 54.1799 39.1533Z" fill="black"/>
<path d="M58.7928 35.8464C58.7642 36.2338 58.7471 36.6213 58.7357 36.9954C58.7242 37.3695 58.7071 37.7502 58.69 38.131C58.787 38.131 58.964 38.131 59.2324 38.1243C59.495 38.1176 59.7804 38.1043 60.0887 38.0842C60.0773 38.1176 60.0773 38.1711 60.0773 38.2512V38.4049V38.5719C60.0773 38.6454 60.083 38.6921 60.0887 38.7255C59.9745 38.7122 59.8547 38.7055 59.7348 38.7055C59.6092 38.6988 59.4778 38.6988 59.3408 38.6988H58.6957C58.6843 38.7389 58.6786 38.9059 58.6614 39.1932C58.65 39.4804 58.6386 39.8211 58.6272 40.2152C58.6158 40.6094 58.6101 41.0235 58.6101 41.4577C58.6043 41.892 58.6043 42.2727 58.6043 42.6134C58.6043 42.9007 58.6101 43.1812 58.6215 43.4618C58.6329 43.7424 58.6786 43.9896 58.7471 44.21C58.8156 44.4304 58.9241 44.6108 59.0611 44.7444C59.2038 44.878 59.4036 44.9448 59.6662 44.9448C59.7348 44.9448 59.8318 44.9315 59.9517 44.9114C60.0716 44.8914 60.1744 44.8647 60.26 44.8313V45.1987C60.1116 45.2321 59.946 45.2655 59.7633 45.3122C59.5806 45.359 59.4093 45.379 59.2438 45.379C58.69 45.379 58.2846 45.2187 58.0163 44.8981C57.7537 44.5774 57.6224 44.1098 57.6224 43.4952C57.6224 43.2146 57.6281 42.914 57.6338 42.5934C57.6452 42.2727 57.6509 41.912 57.668 41.5312C57.6795 41.1438 57.6909 40.7229 57.7023 40.2553C57.7137 39.7877 57.7137 39.2666 57.7137 38.6921H57.2912C57.2227 38.6921 57.1485 38.6921 57.0686 38.6988C56.9887 38.7055 56.9087 38.7122 56.8174 38.7189C56.8288 38.6587 56.8345 38.5986 56.8345 38.5385C56.8402 38.4851 56.8402 38.4249 56.8402 38.3581C56.8402 38.3047 56.8402 38.2579 56.8345 38.2045C56.8288 38.151 56.8231 38.1043 56.8174 38.0508C57.2113 38.0842 57.5025 38.0976 57.6852 38.0976C57.6738 37.8905 57.668 37.6367 57.668 37.3294C57.6623 37.0221 57.6509 36.7014 57.6338 36.3741L58.7242 35.833H58.7928V35.8464Z" fill="black"/>
<path d="M60.7112 41.8119C60.7112 40.5493 60.9681 39.554 61.4819 38.8392C61.9957 38.1177 62.7436 37.7637 63.7256 37.7637C64.1938 37.7637 64.5934 37.8505 64.9302 38.0175C65.2671 38.1845 65.5525 38.4117 65.7809 38.6989C66.0093 38.9795 66.1805 39.3135 66.289 39.6943C66.3975 40.075 66.4546 40.4825 66.4546 40.9101C66.4546 41.0103 66.4546 41.1105 66.4489 41.2107C66.4432 41.3109 66.4374 41.4111 66.4317 41.5113C65.9579 41.4979 65.4897 41.4912 65.0216 41.4779C64.5534 41.4645 64.0853 41.4645 63.6114 41.4645C63.3203 41.4645 63.0348 41.4712 62.7493 41.4779C62.4639 41.4912 62.1784 41.4979 61.8873 41.5113C61.8758 41.5647 61.8758 41.6382 61.8758 41.7451V41.9455C61.8758 42.3463 61.9272 42.7204 62.03 43.0678C62.1328 43.4151 62.2755 43.7158 62.4696 43.9696C62.6637 44.2234 62.8978 44.4239 63.1832 44.5708C63.463 44.7178 63.7884 44.7913 64.1595 44.7913C64.3365 44.7913 64.5135 44.7645 64.7019 44.7044C64.8846 44.651 65.0673 44.5708 65.2442 44.4706C65.4212 44.3704 65.5868 44.2568 65.7409 44.1232C65.8951 43.9896 66.0264 43.8427 66.1406 43.689L66.2091 43.7358L66.112 44.4907C65.8494 44.7378 65.524 44.9449 65.1301 45.1253C64.7418 45.299 64.3308 45.3858 63.914 45.3858C63.4402 45.3858 63.0063 45.299 62.618 45.132C62.2298 44.965 61.8873 44.7178 61.6018 44.3905C61.3163 44.0698 61.0994 43.6823 60.9453 43.2415C60.7911 42.8006 60.7112 42.3196 60.7112 41.8119ZM63.7542 38.2513C63.4287 38.2513 63.1547 38.3382 62.932 38.5119C62.7094 38.6855 62.521 38.906 62.3782 39.1665C62.2355 39.427 62.1213 39.7143 62.0471 40.0283C61.9729 40.3422 61.9272 40.6362 61.9101 40.9167C62.1841 40.9301 62.4639 40.9368 62.7608 40.9501C63.0576 40.9635 63.3431 40.9635 63.6228 40.9635C63.914 40.9635 64.2052 40.9568 64.5078 40.9501C64.8046 40.9368 65.0958 40.9301 65.3755 40.9167C65.3755 40.6362 65.3584 40.3489 65.3185 40.0349C65.2785 39.7277 65.1986 39.4404 65.0787 39.1732C64.9588 38.906 64.7932 38.6855 64.582 38.5119C64.3764 38.3382 64.0967 38.2513 63.7542 38.2513Z" fill="black"/>
<path d="M70.5993 39.007C70.4737 38.9536 70.3424 38.9269 70.2111 38.9269C69.9999 38.9269 69.8114 38.9803 69.6459 39.0939C69.4803 39.2074 69.3376 39.3611 69.2234 39.5481C69.1092 39.7352 69.0236 39.9623 68.9608 40.2295C68.898 40.49 68.8694 40.7706 68.8694 41.0712V42.768C68.8694 43.456 68.8694 43.9838 68.8752 44.3445C68.8809 44.7119 68.8923 45.0058 68.9208 45.233C68.7438 45.2129 68.5669 45.1996 68.3956 45.1996C68.2015 45.1996 68.0188 45.2129 67.8418 45.233C67.8703 44.8856 67.8818 44.4113 67.8875 43.8101C67.8932 43.2089 67.8932 42.474 67.8932 41.5989V41.1046C67.8932 40.7038 67.8932 40.2429 67.8875 39.7151C67.8818 39.1941 67.8703 38.5928 67.8418 37.9115C67.9389 37.9315 68.0302 37.9515 68.1158 37.9649C68.2015 37.9783 68.2985 37.9849 68.3899 37.9849C68.4698 37.9849 68.5497 37.9783 68.6411 37.9649C68.7267 37.9515 68.8238 37.9315 68.9151 37.9115C68.8809 38.2789 68.858 38.5728 68.858 38.7932C68.8523 39.007 68.8523 39.2141 68.8523 39.4078L68.8809 39.4212C69.4004 38.3123 69.977 37.7578 70.6221 37.7578C70.7021 37.7578 70.7706 37.7645 70.8277 37.7712C70.8848 37.7845 70.959 37.8046 71.0446 37.8513C70.999 37.9716 70.9761 38.1653 70.9647 38.4125C70.9533 38.6663 70.9533 38.8934 70.9533 39.1005L70.8619 39.1807C70.8105 39.1139 70.7249 39.0538 70.5993 39.007Z" fill="black"/>
<path d="M73.4253 35.8464C73.3968 36.2338 73.3796 36.6213 73.3682 36.9954C73.3568 37.3695 73.3397 37.7502 73.3226 38.131C73.4196 38.131 73.5966 38.131 73.8649 38.1243C74.1276 38.1176 74.413 38.1043 74.7213 38.0842C74.7099 38.1176 74.7099 38.1711 74.7099 38.2512V38.4049V38.5719C74.7099 38.6454 74.7156 38.6921 74.7213 38.7255C74.6071 38.7122 74.4872 38.7055 74.3673 38.7055C74.2417 38.6988 74.1104 38.6988 73.9734 38.6988H73.3283C73.3168 38.7389 73.3111 38.9059 73.294 39.1932C73.2826 39.4804 73.2712 39.8211 73.2598 40.2152C73.2483 40.6094 73.2426 41.0235 73.2426 41.4577C73.2369 41.892 73.2369 42.2727 73.2369 42.6134C73.2369 42.9007 73.2426 43.1812 73.254 43.4618C73.2655 43.7424 73.3111 43.9896 73.3797 44.21C73.4482 44.4304 73.5566 44.6108 73.6937 44.7444C73.8364 44.878 74.0362 44.9448 74.2988 44.9448C74.3673 44.9448 74.4644 44.9315 74.5843 44.9114C74.7042 44.8914 74.8069 44.8647 74.8926 44.8313V45.1987C74.7441 45.2321 74.5786 45.2655 74.3959 45.3122C74.2132 45.359 74.0419 45.379 73.8763 45.379C73.3226 45.379 72.9172 45.2187 72.6489 44.8981C72.3863 44.5774 72.2549 44.1098 72.2549 43.4952C72.2549 43.2146 72.2607 42.914 72.2664 42.5934C72.2778 42.2727 72.2835 41.912 72.3006 41.5312C72.312 41.1438 72.3235 40.7229 72.3349 40.2553C72.3463 39.7877 72.3463 39.2666 72.3463 38.6921H71.9238C71.8553 38.6921 71.7811 38.6921 71.7012 38.6988C71.6212 38.7055 71.5413 38.7122 71.45 38.7189C71.4614 38.6587 71.4671 38.5986 71.4671 38.5385C71.4728 38.4851 71.4728 38.4249 71.4728 38.3581C71.4728 38.3047 71.4728 38.2579 71.4671 38.2045C71.4614 38.151 71.4557 38.1043 71.45 38.0508C71.8439 38.0842 72.135 38.0976 72.3177 38.0976C72.3063 37.8905 72.3006 37.6367 72.3006 37.3294C72.2949 37.0221 72.2835 36.7014 72.2664 36.3741L73.3568 35.833H73.4253V35.8464Z" fill="black"/>
<path d="M76.0174 38.653C76.4113 38.3056 76.7767 38.0651 77.1078 37.9449C77.439 37.8246 77.7815 37.7578 78.1355 37.7578C78.4495 37.7578 78.7407 37.8113 79.0033 37.9181C79.2659 38.025 79.4886 38.1787 79.677 38.3791C79.8596 38.5795 80.0081 38.82 80.1108 39.1005C80.2136 39.3811 80.2707 39.6951 80.2707 40.0358C80.2707 40.6236 80.2593 41.2048 80.2422 41.786C80.225 42.3672 80.2136 42.9817 80.2136 43.6297C80.2136 43.75 80.2136 43.8836 80.2193 44.0238C80.225 44.1641 80.2422 44.2844 80.2764 44.3913C80.3107 44.4981 80.3621 44.5917 80.4306 44.6585C80.4991 44.732 80.5961 44.7654 80.7274 44.7654C80.7731 44.7654 80.8188 44.7654 80.8645 44.7587C80.9101 44.752 80.9615 44.7386 81.0015 44.7052V45.0459C80.9044 45.0994 80.7845 45.1394 80.6418 45.1662C80.4991 45.1996 80.3392 45.2129 80.1622 45.2129C79.8825 45.2129 79.6655 45.1261 79.5171 44.9591C79.3687 44.7921 79.2773 44.5716 79.2545 44.3044C78.9405 44.6718 78.6265 44.9457 78.3182 45.1194C78.0099 45.2931 77.6331 45.3799 77.1878 45.3799C76.9708 45.3799 76.7539 45.3465 76.5426 45.2731C76.3314 45.1996 76.143 45.086 75.9831 44.919C75.8233 44.752 75.6863 44.5583 75.5892 44.3245C75.4864 44.0907 75.4351 43.8301 75.4351 43.5295C75.4351 42.9149 75.6006 42.434 75.9318 42.0933C76.2629 41.7526 76.7139 41.5255 77.2962 41.4119C77.7701 41.3184 78.1412 41.2382 78.4095 41.1714C78.6779 41.1046 78.872 41.0378 79.0033 40.9643C79.1289 40.8908 79.2088 40.8107 79.2316 40.7105C79.2602 40.6103 79.2716 40.49 79.2716 40.3297C79.2716 40.0758 79.2431 39.8287 79.1917 39.5882C79.1403 39.3544 79.0547 39.1473 78.9405 38.9736C78.8263 38.7999 78.6779 38.6596 78.4952 38.5528C78.3125 38.4459 78.0841 38.3924 77.8215 38.3924C77.4675 38.3924 77.1421 38.486 76.8395 38.673C76.5369 38.86 76.3086 39.1139 76.1601 39.4412H76.0174V38.653ZM79.2716 41.3918C79.1232 41.452 78.9462 41.5054 78.7521 41.5455C78.5523 41.5856 78.3524 41.6323 78.1526 41.6791C77.9528 41.7259 77.753 41.786 77.5532 41.8595C77.3533 41.9329 77.1821 42.0265 77.0279 42.1534C76.8738 42.2736 76.7539 42.434 76.6568 42.6143C76.5655 42.8014 76.5198 43.0352 76.5198 43.3224C76.5198 43.8034 76.6397 44.1708 76.8738 44.418C77.1135 44.6652 77.3762 44.7854 77.6616 44.7854C77.9928 44.7854 78.3011 44.6785 78.5751 44.4647C78.8491 44.251 79.0661 43.9971 79.2145 43.7099L79.2716 41.3918Z" fill="black"/>
<path d="M82.6287 35.2258C82.6287 35.012 82.6972 34.825 82.8285 34.6713C82.9598 34.5177 83.1196 34.4375 83.3023 34.4375C83.485 34.4375 83.6449 34.5177 83.7762 34.6713C83.9075 34.825 83.976 35.012 83.976 35.2258C83.976 35.4395 83.9075 35.6266 83.7762 35.7802C83.6449 35.9339 83.485 36.014 83.3023 36.014C83.1196 36.014 82.9598 35.9339 82.8285 35.7802C82.6972 35.6266 82.6287 35.4462 82.6287 35.2258ZM82.8171 40.7904C82.8171 40.3295 82.8114 39.8418 82.7999 39.3341C82.7885 38.8264 82.76 38.3521 82.7143 37.9112C82.9598 37.9647 83.1596 37.9914 83.308 37.9914C83.4565 37.9914 83.6563 37.9647 83.9018 37.9112C83.8561 38.3521 83.8276 38.8264 83.8162 39.3341C83.8047 39.8418 83.799 40.3295 83.799 40.7904V42.3936C83.799 42.8546 83.8047 43.3422 83.8162 43.8499C83.8276 44.3576 83.8561 44.8186 83.9018 45.2261C83.702 45.206 83.5022 45.1927 83.308 45.1927C83.1139 45.1927 82.9198 45.206 82.7143 45.2261C82.76 44.8186 82.7885 44.3576 82.7999 43.8499C82.8114 43.3422 82.8171 42.8546 82.8171 42.3936V40.7904Z" fill="black"/>
<path d="M90.0447 39.1533C89.7878 38.7592 89.4395 38.5588 88.9885 38.5588C88.3719 38.5588 87.9209 38.7792 87.6411 39.2201C87.3556 39.661 87.2129 40.2823 87.2129 41.0839V42.3932C87.2129 42.8542 87.2186 43.3418 87.23 43.8495C87.2415 44.3572 87.27 44.8181 87.3157 45.2256C87.1159 45.2056 86.916 45.1922 86.7219 45.1922C86.5278 45.1922 86.3337 45.2056 86.1282 45.2256C86.1738 44.8181 86.2024 44.3572 86.2138 43.8495C86.2252 43.3418 86.2309 42.8542 86.2309 42.3932V40.79C86.2309 40.329 86.2252 39.8414 86.2138 39.3337C86.2024 38.826 86.1738 38.3517 86.1282 37.9108C86.3737 37.9642 86.5735 37.991 86.7219 37.991C86.7904 37.991 86.8704 37.9843 86.9503 37.9709C87.0359 37.9576 87.133 37.9375 87.2472 37.9175C87.2186 38.3316 87.2072 38.7391 87.2072 39.1533H87.2358C87.4813 38.7124 87.7781 38.3717 88.1207 38.1312C88.4632 37.8907 88.8686 37.7705 89.3482 37.7705C89.5937 37.7705 89.8449 37.8106 90.0904 37.8908C90.3416 37.9709 90.5642 38.1112 90.7697 38.3116C90.9696 38.512 91.1351 38.7859 91.2664 39.1266C91.392 39.474 91.4548 39.9082 91.4548 40.4426C91.4548 40.8835 91.4434 41.3377 91.4263 41.8054C91.4092 42.273 91.3978 42.7673 91.3978 43.295V44.2971C91.3978 44.4641 91.3978 44.6244 91.4035 44.7847C91.4092 44.9451 91.4149 45.0987 91.4206 45.239C91.2436 45.219 91.0609 45.2056 90.8668 45.2056C90.6841 45.2056 90.5014 45.219 90.3244 45.239C90.3416 44.7046 90.3644 44.1568 90.3815 43.589C90.4044 43.0212 90.4158 42.4467 90.4158 41.8454V40.9035C90.4272 40.1286 90.3016 39.5474 90.0447 39.1533Z" fill="black"/>
<path d="M93.4646 39.3343C93.4532 38.8266 93.4246 38.3524 93.3789 37.9115C93.6244 37.9649 93.8243 37.9916 93.9727 37.9916C94.0412 37.9916 94.1211 37.9849 94.2011 37.9716C94.2867 37.9582 94.3838 37.9382 94.4979 37.9181C94.4694 38.3323 94.458 38.7398 94.458 39.154H94.4865C94.9547 38.2321 95.6055 37.7645 96.4505 37.7645C96.6674 37.7645 96.8844 37.8046 97.0956 37.8781C97.3068 37.9515 97.4952 38.0584 97.6665 38.192C97.8378 38.3256 97.9862 38.486 98.1061 38.6797C98.2317 38.8667 98.3117 39.0738 98.3573 39.2876H98.3859C98.5971 38.7932 98.8826 38.4192 99.248 38.1519C99.6133 37.8914 100.03 37.7578 100.504 37.7578C100.795 37.7578 101.063 37.8046 101.309 37.8981C101.554 37.9916 101.766 38.1319 101.948 38.3323C102.131 38.526 102.268 38.7799 102.371 39.0872C102.474 39.3945 102.525 39.7686 102.525 40.1961C102.525 40.3698 102.519 40.5635 102.514 40.7639C102.502 40.971 102.496 41.2115 102.485 41.4787C102.474 41.7526 102.468 42.0599 102.457 42.4006C102.445 42.7479 102.445 43.1421 102.445 43.5963C102.445 43.8769 102.445 44.1441 102.451 44.3979C102.457 44.6518 102.468 44.9324 102.485 45.233C102.388 45.2129 102.291 45.1996 102.194 45.1996C102.097 45.1996 102.005 45.1996 101.92 45.1996C101.823 45.1996 101.726 45.1996 101.629 45.1996C101.532 45.1996 101.435 45.2129 101.338 45.233C101.366 44.9791 101.395 44.4581 101.423 43.6765C101.452 42.8949 101.469 41.806 101.469 40.4099C101.469 40.156 101.446 39.9088 101.395 39.6884C101.349 39.4613 101.269 39.2675 101.166 39.1005C101.063 38.9335 100.921 38.8066 100.744 38.7064C100.567 38.6062 100.35 38.5594 100.087 38.5594C99.7732 38.5594 99.5049 38.6329 99.2822 38.7732C99.0653 38.9202 98.894 39.0872 98.7684 39.2809C98.6999 39.3945 98.6428 39.508 98.6028 39.6216C98.5629 39.7352 98.5343 39.9088 98.5115 40.136C98.4886 40.3698 98.4715 40.6904 98.4658 41.1046C98.4544 41.5188 98.4544 42.0933 98.4544 42.8214C98.4544 43.2623 98.4601 43.6698 98.4715 44.0305C98.4829 44.3979 98.5001 44.7921 98.5172 45.2263C98.3174 45.2063 98.1233 45.1929 97.9349 45.1929C97.7522 45.1929 97.558 45.2063 97.3525 45.2263C97.3982 44.6585 97.4267 44.084 97.4439 43.5028C97.461 42.9149 97.4724 42.3404 97.4724 41.7793C97.4724 41.2983 97.4724 40.9176 97.4667 40.6437C97.461 40.3698 97.4496 40.156 97.4324 39.9957C97.4153 39.8354 97.3925 39.7084 97.3582 39.6016C97.3297 39.5013 97.284 39.3878 97.2326 39.2609C97.1356 39.0671 96.9871 38.9001 96.7759 38.7598C96.5704 38.6196 96.3591 38.5528 96.1365 38.5528C95.5541 38.5528 95.1317 38.7732 94.8576 39.2141C94.5836 39.655 94.4466 40.2763 94.4466 41.0779V42.3872C94.4466 42.8481 94.4523 43.3358 94.4637 43.8435C94.4751 44.3512 94.5036 44.8121 94.5493 45.2196C94.3495 45.1996 94.1497 45.1862 93.9556 45.1862C93.7615 45.1862 93.5673 45.1996 93.3618 45.2196C93.4075 44.8121 93.436 44.3512 93.4475 43.8435C93.4589 43.3358 93.4646 42.8481 93.4646 42.3872V40.7839C93.4817 40.3297 93.476 39.842 93.4646 39.3343Z" fill="black"/>
<path d="M103.889 41.8119C103.889 40.5493 104.146 39.554 104.66 38.8392C105.174 38.1177 105.922 37.7637 106.904 37.7637C107.372 37.7637 107.772 37.8505 108.108 38.0175C108.445 38.1845 108.731 38.4117 108.959 38.6989C109.188 38.9795 109.359 39.3135 109.467 39.6943C109.576 40.075 109.633 40.4825 109.633 40.9101C109.633 41.0103 109.633 41.1105 109.627 41.2107C109.621 41.3109 109.616 41.4111 109.61 41.5113C109.136 41.4979 108.668 41.4912 108.2 41.4779C107.732 41.4645 107.264 41.4645 106.79 41.4645C106.498 41.4645 106.213 41.4712 105.928 41.4779C105.642 41.4912 105.357 41.4979 105.065 41.5113C105.054 41.5647 105.054 41.6382 105.054 41.7451V41.9455C105.054 42.3463 105.105 42.7204 105.208 43.0678C105.311 43.4151 105.454 43.7158 105.648 43.9696C105.842 44.2234 106.076 44.4239 106.361 44.5708C106.641 44.7178 106.967 44.7913 107.338 44.7913C107.515 44.7913 107.692 44.7645 107.88 44.7044C108.063 44.651 108.246 44.5708 108.422 44.4706C108.599 44.3704 108.765 44.2568 108.919 44.1232C109.073 43.9896 109.205 43.8427 109.319 43.689L109.387 43.7358L109.307 44.4907C109.045 44.7378 108.719 44.9449 108.325 45.1253C107.937 45.299 107.526 45.3858 107.109 45.3858C106.636 45.3858 106.202 45.299 105.813 45.132C105.425 44.965 105.083 44.7178 104.797 44.3905C104.512 44.0698 104.295 43.6823 104.141 43.2415C103.964 42.8006 103.889 42.3196 103.889 41.8119ZM106.932 38.2513C106.607 38.2513 106.333 38.3382 106.11 38.5119C105.888 38.6855 105.699 38.906 105.556 39.1665C105.414 39.427 105.3 39.7143 105.225 40.0283C105.151 40.3422 105.105 40.6362 105.088 40.9167C105.362 40.9301 105.642 40.9368 105.939 40.9501C106.236 40.9635 106.521 40.9635 106.801 40.9635C107.092 40.9635 107.383 40.9568 107.686 40.9501C107.983 40.9368 108.274 40.9301 108.554 40.9167C108.554 40.6362 108.537 40.3489 108.497 40.0349C108.457 39.7277 108.377 39.4404 108.257 39.1732C108.137 38.906 107.971 38.6855 107.76 38.5119C107.549 38.3382 107.275 38.2513 106.932 38.2513Z" fill="black"/>
<path d="M114.925 39.1533C114.668 38.7592 114.32 38.5588 113.869 38.5588C113.252 38.5588 112.801 38.7792 112.522 39.2201C112.236 39.661 112.094 40.2823 112.094 41.0839V42.3932C112.094 42.8542 112.099 43.3418 112.111 43.8495C112.122 44.3572 112.151 44.8181 112.196 45.2256C111.996 45.2056 111.797 45.1922 111.603 45.1922C111.408 45.1922 111.214 45.2056 111.009 45.2256C111.054 44.8181 111.083 44.3572 111.094 43.8495C111.106 43.3418 111.112 42.8542 111.112 42.3932V40.79C111.112 40.329 111.106 39.8414 111.094 39.3337C111.083 38.826 111.054 38.3517 111.009 37.9108C111.254 37.9642 111.454 37.991 111.603 37.991C111.671 37.991 111.751 37.9843 111.831 37.9709C111.917 37.9576 112.014 37.9375 112.128 37.9175C112.099 38.3316 112.088 38.7391 112.088 39.1533H112.116C112.362 38.7124 112.659 38.3717 113.001 38.1312C113.344 37.8907 113.749 37.7705 114.229 37.7705C114.474 37.7705 114.725 37.8106 114.971 37.8908C115.222 37.9709 115.445 38.1112 115.65 38.3116C115.85 38.512 116.016 38.7859 116.147 39.1266C116.273 39.474 116.335 39.9082 116.335 40.4426C116.335 40.8835 116.324 41.3377 116.307 41.8054C116.29 42.273 116.278 42.7673 116.278 43.295V44.2971C116.278 44.4641 116.278 44.6244 116.284 44.7847C116.29 44.9451 116.295 45.0987 116.301 45.239C116.124 45.219 115.941 45.2056 115.747 45.2056C115.565 45.2056 115.382 45.219 115.205 45.239C115.222 44.7046 115.245 44.1568 115.262 43.589C115.285 43.0212 115.296 42.4467 115.296 41.8454V40.9035C115.308 40.1286 115.182 39.5474 114.925 39.1533Z" fill="black"/>
<path d="M119.538 35.8464C119.51 36.2338 119.493 36.6213 119.481 36.9954C119.47 37.3695 119.453 37.7502 119.436 38.131C119.533 38.131 119.71 38.131 119.978 38.1243C120.241 38.1176 120.526 38.1043 120.834 38.0842C120.823 38.1176 120.823 38.1711 120.823 38.2512V38.4049V38.5719C120.823 38.6454 120.829 38.6921 120.834 38.7255C120.72 38.7122 120.6 38.7055 120.48 38.7055C120.355 38.6988 120.223 38.6988 120.086 38.6988H119.441C119.43 38.7389 119.424 38.9059 119.407 39.1932C119.396 39.4804 119.384 39.8211 119.373 40.2152C119.361 40.6094 119.356 41.0235 119.356 41.4577C119.35 41.892 119.35 42.2727 119.35 42.6134C119.35 42.9007 119.356 43.1812 119.367 43.4618C119.379 43.7424 119.424 43.9896 119.493 44.21C119.561 44.4304 119.67 44.6108 119.807 44.7444C119.949 44.878 120.149 44.9448 120.412 44.9448C120.48 44.9448 120.577 44.9315 120.697 44.9114C120.817 44.8914 120.92 44.8647 121.006 44.8313V45.1987C120.857 45.2321 120.692 45.2655 120.509 45.3122C120.326 45.359 120.155 45.379 119.989 45.379C119.436 45.379 119.03 45.2187 118.762 44.8981C118.499 44.5774 118.368 44.1098 118.368 43.4952C118.368 43.2146 118.374 42.914 118.379 42.5934C118.391 42.2727 118.397 41.912 118.414 41.5312C118.425 41.1438 118.436 40.7229 118.448 40.2553C118.459 39.7877 118.459 39.2666 118.459 38.6921H118.037C117.968 38.6921 117.894 38.6921 117.814 38.6988C117.734 38.7055 117.654 38.7122 117.563 38.7189C117.574 38.6587 117.58 38.5986 117.58 38.5385C117.586 38.4851 117.586 38.4249 117.586 38.3581C117.586 38.3047 117.586 38.2579 117.58 38.2045C117.574 38.151 117.569 38.1043 117.563 38.0508C117.957 38.0842 118.248 38.0976 118.431 38.0976C118.419 37.8905 118.414 37.6367 118.414 37.3294C118.408 37.0221 118.397 36.7014 118.379 36.3741L119.47 35.833H119.538V35.8464Z" fill="black"/>
</g>
<defs>
<clipPath id="clip0_2482_16660">
<rect width="121" height="46" fill="white"/>
</clipPath>
</defs>
</svg>
