<svg width="134" height="50" viewBox="0 0 134 50" fill="none" xmlns="http://www.w3.org/2000/svg">
<path d="M97.6026 30.1165H89.327V24.7683H103.416V39.4474V40.3198L103 40.5663C102.981 40.5853 102.943 40.6042 102.924 40.6042C95.4816 44.8904 87.831 45.7059 80.1614 41.4008C73.7038 37.7784 70.8442 30.8182 71.5071 23.82C72.2456 16.1201 77.87 9.38749 86.6 7.79442C91.7888 6.84616 96.6936 7.73752 101.257 10.2409C101.295 10.2599 101.314 10.2789 101.352 10.2978L102.299 10.8478L102.318 10.8668L102.886 11.2082L100.083 16.0632L99.5152 15.7219H99.4963C99.4395 15.7029 99.4016 15.665 99.3448 15.627C96.5421 13.9581 93.5311 13.0288 90.2739 13.0667C81.8847 13.1805 77.4723 19.5339 77.9647 26.7217C78.3813 32.7906 81.9983 37.1146 87.5848 38.4043C90.7473 39.125 93.853 38.8215 96.8262 37.475C96.864 37.456 96.9019 37.437 96.9398 37.4181C96.9587 37.3991 96.9777 37.3991 96.9966 37.3802L97.5836 37.0767V34.8388L97.6026 30.1165Z" fill="#005CA6"/>
<path d="M134 8.04102V13.5789H122.808V43.5818H116.691V13.5789H105.462V8.04102H134Z" fill="#005CA6"/>
<path d="M67.1137 8.04102H60.9969V43.5818H67.1137V8.04102Z" fill="#005CA6"/>
<path d="M34.2386 48.2099C31.3601 49.3668 28.2355 49.9927 24.9594 49.9927C19.2024 49.9927 13.9189 48.0393 9.69592 44.7772C17.3655 44.36 24.3912 41.4204 29.9398 36.7739L30.2618 37.0774L23.2171 47.6031L33.6137 37.3239L34.1818 48.0393L34.2386 48.2099Z" fill="url(#paint0_linear_8586_36090)"/>
<path d="M41.2264 10.2981C41.2264 16.4618 39.541 22.2462 36.6246 27.2151L35.4884 6.4861L33.7083 28.8461L22.933 17.1066L31.3411 30.3633L8.84369 24.7686L30.3943 32.9046L10.2261 40.0356L29.1066 35.977L29.1634 36.0339C23.5201 40.7373 16.3239 43.601 8.46495 43.7527C3.27614 39.1632 0 32.4495 0 24.9961C0 11.1895 11.173 0 24.9593 0C31.0381 0 36.5868 2.181 40.9234 5.78439C41.1128 7.26368 41.2264 8.76193 41.2264 10.2981Z" fill="url(#paint1_linear_8586_36090)"/>
<path d="M42.1543 43.1084C40.2795 44.8911 38.1207 46.3894 35.7535 47.5273L35.7914 47.3376L36.5678 37.1533L42.1543 43.1084Z" fill="url(#paint2_linear_8586_36090)"/>
<path d="M46.6234 37.4188C45.6387 39.1446 44.4456 40.7377 43.0821 42.1791L39.0106 35.5981L46.3015 37.324L46.6234 37.4188Z" fill="url(#paint3_linear_8586_36090)"/>
<path d="M49.4831 29.6235C49.0665 31.8425 48.3658 33.9666 47.4 35.9389L47.2485 35.8441L39.9576 33.0373L49.2937 29.6994L49.4831 29.6235Z" fill="url(#paint4_linear_8586_36090)"/>
<path d="M49.9186 24.996C49.9186 26.0391 49.8618 27.0821 49.7292 28.0873L39.4842 30.3252L46.6614 19.2116L38.4237 26.8546L38.0449 26.9684C40.7719 22.0184 42.3247 16.3478 42.3247 10.2979C42.3247 9.14106 42.2679 8.00315 42.1543 6.86523C46.9265 11.4169 49.9186 17.8461 49.9186 24.996Z" fill="url(#paint5_linear_8586_36090)"/>
<defs>
<linearGradient id="paint0_linear_8586_36090" x1="33.4378" y1="51.0752" x2="21.6818" y2="41.1084" gradientUnits="userSpaceOnUse">
<stop stop-color="#1764A3"/>
<stop offset="1" stop-color="#239AD7"/>
</linearGradient>
<linearGradient id="paint1_linear_8586_36090" x1="7.01663" y1="9.12944" x2="31.7419" y2="30.9396" gradientUnits="userSpaceOnUse">
<stop stop-color="#FDE32E"/>
<stop offset="0.1117" stop-color="#FDDD2D"/>
<stop offset="0.7339" stop-color="#EF602E"/>
<stop offset="1" stop-color="#EE582E"/>
</linearGradient>
<linearGradient id="paint2_linear_8586_36090" x1="39.945" y1="45.5544" x2="28.189" y2="35.5876" gradientUnits="userSpaceOnUse">
<stop stop-color="#1764A3"/>
<stop offset="1" stop-color="#239AD7"/>
</linearGradient>
<linearGradient id="paint3_linear_8586_36090" x1="44.8314" y1="39.7907" x2="33.0753" y2="29.8239" gradientUnits="userSpaceOnUse">
<stop stop-color="#1764A3"/>
<stop offset="1" stop-color="#239AD7"/>
</linearGradient>
<linearGradient id="paint4_linear_8586_36090" x1="48.9542" y1="34.9273" x2="37.1982" y2="24.9605" gradientUnits="userSpaceOnUse">
<stop stop-color="#1764A3"/>
<stop offset="1" stop-color="#239AD7"/>
</linearGradient>
<linearGradient id="paint5_linear_8586_36090" x1="53.5871" y1="29.4626" x2="41.8311" y2="19.4958" gradientUnits="userSpaceOnUse">
<stop stop-color="#1764A3"/>
<stop offset="1" stop-color="#239AD7"/>
</linearGradient>
</defs>
</svg>
