<svg width="1440" height="253" viewBox="0 0 1440 253" fill="none" xmlns="http://www.w3.org/2000/svg">
<g clip-path="url(#clip0_513_2181)">
<rect width="1444.99" height="253.296" fill="#3803CE"/>
<path d="M1156.71 53.9773C1157.18 53.2708 1157.03 52.0623 1156.36 51.0965C1142.21 30.9434 1114.41 -13.6846 1107.84 -25.917C1107.5 -26.5279 1106.92 -27.185 1106.23 -27.3812L1101.19 -29.2493C1100.72 -29.3728 1100.4 -29.3336 1100.13 -29.0043C1100.04 -28.9034 1099.86 -28.6906 1099.92 -28.4114C1099.58 -22.7337 1097.84 -17.7913 1095.04 -13.988C1092.78 -11.2016 1089.56 -9.41021 1085.96 -8.58649C1082.74 -7.92773 1079.94 -6.35866 1077.83 -3.81454C1077.73 -3.7027 1077.73 -3.70271 1077.64 -3.58624C1075.51 -1.01571 1074.29 2.29536 1074.27 6.37608C1074.21 7.18297 1073.88 7.94523 1073.49 8.41274C1073.2 8.76842 1073 9.00762 1072.55 9.19592C1071.18 9.37139 1069.76 9.2676 1068.44 8.63153C1067.73 8.3795 1067.09 8.40672 1066.79 8.75776L1064.68 11.3019C1064.17 11.9076 1064.46 13.0741 1065.49 14.0658L1089.55 37.2648C1090.39 38.0798 1091.49 38.2182 1091.98 37.5566L1093.88 35.0624C1094.23 34.5965 1094.15 33.6826 1093.48 32.8192L1093.32 32.672L1093.17 32.5248C1088.52 26.2994 1087.65 18.946 1090.95 14.7526C1091.03 14.6361 1091.22 14.4077 1091.31 14.2913L1091.4 14.1748L1091.49 14.0583C1093.42 12.3057 1095.79 11.0165 1098.5 10.3382C1101.27 9.54965 1103.79 8.35646 1105.66 6.27346C1106.61 5.04963 1108.46 5.03801 1110.44 6.17907C1112.4 7.31085 1113.9 9.35405 1114.48 11.5845C1118.76 27.1479 1134.51 50.8366 1145.89 65.592C1146.81 66.7732 1148.18 66.9918 1148.79 66.0539L1156.71 53.9773Z" stroke="url(#paint0_linear_513_2181)" stroke-width="0.398038" stroke-miterlimit="10"/>
<path d="M1147.1 74.469C1135.18 60.2588 1114.95 31.8958 1109.51 13.8341C1107.38 15.6103 1104.9 16.8376 1102.19 17.6649C1100.18 18.2368 1098.35 19.2212 1096.81 20.5265C1095.21 22.5983 1095.49 26.3995 1097.83 29.5603C1100.72 33.2665 1101.4 37.8041 1099.4 40.4924L1097.47 43.0752C1095.16 46.1657 1090.09 45.6522 1085.92 41.6977L1061.66 18.7533C1057.08 14.4316 1055.34 8.07846 1058.04 4.89432L1060.2 2.33765C1061.64 0.636854 1064 0.106383 1066.81 0.905067C1067.33 -3.83728 1068.98 -7.66869 1071.56 -10.7146C1074.21 -13.8506 1077.73 -15.8084 1081.82 -16.6374C1084.8 -17.2912 1087.36 -18.5683 1089.21 -20.7941C1091.7 -23.7793 1093.09 -27.9486 1093.43 -32.6473C1093.72 -36.5701 1096.57 -38.1563 1100.37 -36.6669L1105.33 -34.6063C1108.16 -33.5469 1110.99 -30.8274 1112.74 -27.534C1119.69 -14.5588 1150.68 35.8281 1162.79 52.5005C1163.29 53.1764 1163.39 54.0638 1163.05 54.5855C1160.83 57.9956 1152.85 70.2694 1149.88 74.7976C1149.31 75.6982 1148.02 75.5478 1147.1 74.469Z" stroke="url(#paint1_linear_513_2181)" stroke-width="0.398038" stroke-miterlimit="10"/>
<path d="M1266.8 93.5605C1254.66 101.558 1235.58 104.048 1218.96 98.0234C1194.96 89.3207 1190.93 68.075 1212.05 54.6864C1227.59 44.8328 1249.41 42.2725 1261.72 53.7703C1263.54 55.4732 1265.73 56.9178 1268.28 57.7752C1276.45 60.5351 1280.01 65.4678 1280.45 70.8937C1280.48 71.2343 1280.5 71.5749 1280.5 71.9154" stroke="#FFCA5F" stroke-width="0.398038" stroke-miterlimit="10"/>
<path d="M1314.91 97.0248C1309.13 107.794 1295.05 114.031 1282.06 110.719C1266.91 106.867 1261.69 91.8103 1272.25 79.1381C1280.38 69.3785 1293.8 64.1757 1303.2 71.6334C1304.6 72.7374 1306.2 73.5947 1307.99 73.9236C1319.12 76.0141 1319.92 87.6763 1314.91 97.0248Z" stroke="#FFCA5F" stroke-width="0.398038" stroke-miterlimit="10"/>
<path d="M1301.59 25.1133C1301.59 25.1133 1319.42 49.1071 1305 72.6078" stroke="#FFCA5F" stroke-width="0.398038" stroke-miterlimit="10"/>
<path d="M1301.7 25.0537C1301.7 25.0537 1298.56 46.2877 1270.94 54.7085C1269.21 55.237 1267.36 55.7302 1265.39 56.1765" stroke="#FFCA5F" stroke-width="0.398038" stroke-miterlimit="10"/>
<path d="M1291.12 31.6083C1283.77 31.8549 1275.35 25.2898 1275.35 25.2898C1275.35 25.2898 1279.9 18.5719 1287.53 18.8068C1294.63 19.0182 1301.61 25.2428 1301.61 25.2428C1301.61 25.2428 1297.97 31.3734 1291.12 31.6083Z" stroke="#FFCA5F" stroke-width="0.398038" stroke-miterlimit="10"/>
<path d="M1311.61 34.6493C1305.67 32.5353 1301.8 25.2186 1301.8 25.2186C1301.8 25.2186 1308.02 21.9066 1313.81 24.3377C1319.23 26.6161 1322.42 33.2282 1322.42 33.2282C1322.42 33.2282 1317.18 36.6341 1311.61 34.6493Z" stroke="#FFCA5F" stroke-width="0.398038" stroke-miterlimit="10"/>
<path d="M1203.16 254.222L1201.11 274.101L1211.72 283.387C1212.78 284.305 1212.19 286.612 1210.72 287.335L1196.58 294.175L1190.72 310.579C1190.05 312.414 1187.69 313.443 1186.66 312.303L1176.41 300.848L1153.1 305.491C1149.98 306.103 1147.9 303.656 1149.68 301.32L1164.68 281.636L1154.9 257.836C1153.62 254.694 1156.6 252.053 1159.85 253.415L1183.3 263.23L1199.63 251.274C1201.3 249.995 1203.41 251.775 1203.16 254.222Z" stroke="#FFCA5F" stroke-width="0.398038" stroke-miterlimit="10"/>
<path d="M1105.17 254.367C1069.2 280.181 1007.74 256.12 967.941 200.674C928.138 145.228 925.045 79.3125 961.013 53.5419L982.746 38.1267L1126.19 239.445L1105.17 254.367Z" fill="url(#paint2_linear_513_2181)"/>
<path d="M991.443 183.882C1031.19 239.387 1092.63 263.536 1128.67 237.82C1164.72 212.103 1161.71 146.26 1121.97 90.7552C1082.22 35.2502 1020.78 11.1016 984.736 36.818C948.693 62.5343 951.696 128.377 991.443 183.882Z" fill="url(#paint3_linear_513_2181)"/>
<path d="M1017.47 165.317C1041.38 198.696 1078.32 213.22 1099.99 197.758C1121.66 182.296 1119.85 142.703 1095.95 109.324C1072.05 75.9448 1035.1 61.4201 1013.43 76.8821C991.76 92.3441 993.57 131.938 1017.47 165.317Z" stroke="white" stroke-width="0.552676" stroke-miterlimit="10"/>
<path d="M1174.7 -80.0117C1174.7 -80.0117 1137.21 -6.40474 1148.81 37.7417C1151.8 49.1504 1158.33 57.5376 1166.4 61.8256C1173.99 66.1358 1188.89 65.2693 1188.89 65.2693C1196.09 61.0146 1203.46 49.3393 1206.52 40.841L1202.24 84.7875L1216.97 85.5096L1221.25 41.5631C1221.25 41.5631 1218.22 37.4306 1224.35 33.8092C1230.64 30.0877 1237.18 29.2434 1239.6 21.0451C1241.79 13.1357 1241.9 3.49322 1239.51 -5.40494C1233.19 -28.9334 1206.51 -65.037 1189.44 -79.2785L1174.7 -80.0117Z" fill="url(#paint4_linear_513_2181)"/>
<path d="M1189.43 -79.2915C1189.43 -79.2915 1151.94 -5.68448 1163.54 38.462C1166.54 49.8707 1173.07 58.2579 1181.13 62.5459C1188.72 66.8561 1197.67 66.434 1205.66 61.7016C1212.85 57.4469 1218.19 50.0596 1221.25 41.5502L1216.97 85.4967L1243.97 67.256L1222.24 40.9948C1228.26 44.2274 1234.97 44.3607 1241.09 40.7393C1247.39 37.0178 1251.91 29.9415 1254.33 21.7432C1256.52 13.8337 1256.64 4.19126 1254.24 -4.7069C1244.99 -39.1665 1189.43 -79.2915 1189.43 -79.2915Z" fill="#E09EE7"/>
<path d="M1145.23 277.919C1144.95 274.952 1144.42 271.994 1143.3 269.075C1136.79 252.354 1117.47 240.977 1100.73 247.483C1100.73 247.483 1089.98 257.04 1086.42 262.072C1080.33 270.684 1078.53 282.068 1082.63 292.637C1083.76 295.556 1085.38 298.1 1087.18 300.47C1070.83 307.19 1062.75 325.722 1069.17 342.256C1075.67 358.977 1094.52 367.271 1111.28 360.771C1114.41 359.566 1117.23 357.926 1119.7 355.942C1121.78 354.295 1126.74 349.465 1128.31 347.39C1128.31 347.39 1127.91 346.303 1128.93 344.086L1125.06 369.08L1163.61 354.112L1171.81 345.962L1143.86 338.261C1151.33 341.428 1159.97 341.825 1168.16 338.647C1184.91 332.142 1193.22 313.312 1186.73 296.576C1180.32 280.063 1161.84 271.833 1145.23 277.919Z" fill="url(#paint5_linear_513_2181)"/>
<path d="M1153.62 269.851C1153.34 266.884 1152.81 263.926 1151.68 261.007C1145.18 244.286 1126.33 235.992 1109.57 242.492C1092.82 248.997 1084.51 267.827 1091 284.563C1092.13 287.483 1093.75 290.026 1095.55 292.397C1079.2 299.117 1071.12 317.649 1077.54 334.183C1084.04 350.904 1102.89 359.198 1119.65 352.698C1127.83 349.515 1133.94 343.397 1137.31 336.034L1133.44 361.028L1171.99 346.06L1152.25 330.23C1159.72 333.398 1168.36 333.795 1176.55 330.617C1193.3 324.111 1201.62 305.282 1195.12 288.545C1188.71 271.995 1170.21 263.76 1153.62 269.851Z" fill="#E09EE7"/>
<path d="M1084.71 5.90871C1077.03 17.0389 1056.08 15.9188 1037.95 3.38545C1019.82 -9.14791 1011.33 -28.3301 1019.01 -39.4602L1023.66 -46.1321L1089.23 -0.503564L1084.71 5.90871Z" fill="url(#paint6_linear_513_2181)"/>
<path d="M1023.96 -46.72C1015.81 -34.9865 1023.91 -15.2937 1042.05 -2.73493C1060.19 9.82387 1081.51 10.4929 1089.66 -1.24053C1097.81 -12.9739 1089.71 -32.6668 1071.56 -45.2256C1053.42 -57.7844 1032.11 -58.4534 1023.96 -46.72Z" fill="url(#paint7_linear_513_2181)"/>
<path d="M1036.7 -37.9088C1031.71 -30.7235 1036.67 -18.6642 1047.78 -10.9734C1058.89 -3.28259 1071.94 -2.87264 1076.93 -10.0579C1081.92 -17.2432 1076.96 -29.3025 1065.85 -36.9933C1054.74 -44.6841 1041.69 -45.0941 1036.7 -37.9088Z" stroke="white" stroke-width="0.796076" stroke-miterlimit="10"/>
<path d="M1412.61 91.9585C1423.67 84.7741 1441.63 92.7548 1452.72 109.802C1463.81 126.849 1463.83 146.52 1452.77 153.704L1446.1 157.993L1406.16 96.1026L1412.61 91.9585Z" fill="url(#paint8_linear_513_2181)"/>
<path d="M1445.4 158.473C1456.49 151.307 1456.5 131.666 1445.43 114.604C1434.36 97.5422 1416.4 89.5202 1405.32 96.6863C1394.24 103.852 1394.23 123.493 1405.3 140.555C1416.37 157.617 1434.32 165.639 1445.4 158.473Z" fill="url(#paint9_linear_513_2181)"/>
<path d="M1437.04 146.242C1443.57 142.02 1443.57 130.445 1437.05 120.387C1430.52 110.33 1419.94 105.598 1413.41 109.82C1406.88 114.041 1406.88 125.617 1413.41 135.674C1419.93 145.732 1430.51 150.463 1437.04 146.242Z" stroke="white" stroke-width="0.796076" stroke-miterlimit="10"/>
<path d="M1086.49 -37.0433C1082.4 -22.0804 1059.3 -15.3269 1034.9 -21.9931C1010.5 -28.6593 994.011 -46.182 998.099 -61.1449L1000.59 -70.1283L1088.94 -45.6974L1086.49 -37.0433Z" fill="url(#paint10_linear_513_2181)"/>
<path d="M1181.86 165.493C1181.86 165.493 1172.91 174.555 1179.97 187.853" stroke="url(#paint11_linear_513_2181)" stroke-width="0.796076" stroke-miterlimit="10"/>
<path d="M1419.84 68.3978L1346.12 69.4884C1342.15 69.5452 1339.61 66.6598 1340.44 63.0474L1362.7 -33.2713C1363.53 -36.8837 1367.41 -39.7804 1371.35 -39.7577L1444.61 -39.2919C1448.44 -39.2692 1450.87 -36.3725 1450.06 -32.8283L1428.3 61.866C1427.47 65.4102 1423.69 68.341 1419.84 68.3978Z" fill="url(#paint12_linear_513_2181)"/>
<path d="M1354.08 55.811C1354.2 55.1408 1354.44 54.5614 1354.82 54.073C1355.21 53.5845 1355.71 53.221 1356.35 52.9597L1354.82 51.5398L1356.84 51.3921L1357.96 52.5849L1358.08 52.5735C1359.19 52.4826 1360.01 52.6757 1360.51 53.1301C1361.01 53.5959 1361.18 54.2888 1361.01 55.2317C1360.84 56.1745 1360.42 56.9129 1359.75 57.4581C1359.08 58.0034 1358.18 58.3215 1357.07 58.4237C1355.96 58.526 1355.14 58.3556 1354.63 57.9012C1354.12 57.4581 1353.93 56.7539 1354.08 55.811ZM1359.41 55.3566C1359.52 54.7205 1359.44 54.2547 1359.19 53.9594C1358.94 53.664 1358.51 53.5391 1357.89 53.5845C1356.65 53.6868 1355.93 54.3797 1355.71 55.6747C1355.49 56.9583 1356.01 57.549 1357.22 57.4354C1357.84 57.3786 1358.33 57.1855 1358.69 56.8334C1359.07 56.4812 1359.3 55.9928 1359.41 55.3566Z" fill="white"/>
<path d="M1405.9 10.669L1405.9 10.669C1408.24 10.6636 1410.12 11.5281 1411.29 12.8915C1412.45 14.252 1412.95 16.1446 1412.45 18.2684L1412.45 18.2696C1411.46 22.5626 1406.84 26.1185 1402.13 26.1514L1402.13 26.1514C1398.64 26.184 1396.16 24.2715 1395.52 21.5833L1395.31 20.7206L1394.81 21.4486C1392.85 24.2582 1389.36 26.2431 1385.84 26.2649L1385.83 26.2649C1383.47 26.2813 1381.57 25.4163 1380.38 24.0441C1379.2 22.6749 1378.7 20.7655 1379.19 18.6192C1380.2 14.2934 1384.87 10.7256 1389.62 10.7144C1389.68 10.7145 1389.74 10.7205 1389.82 10.73C1389.83 10.7316 1389.84 10.7334 1389.86 10.7352C1389.93 10.7435 1390.01 10.7536 1390.09 10.759L1390.72 10.8013L1390.48 10.212C1390.03 9.08167 1389.87 7.76855 1390.21 6.35215L1390.21 6.35008C1391.2 2.03584 1395.85 -1.5199 1400.58 -1.5199L1400.58 -1.51991C1402.93 -1.52535 1404.82 -0.655548 1405.99 0.716602C1407.16 2.0859 1407.66 3.99024 1407.17 6.12539C1406.83 7.55047 1406.08 8.89072 1405.07 10.0553L1404.44 10.7771L1405.4 10.7136C1405.48 10.7084 1405.56 10.6988 1405.63 10.6906C1405.65 10.6886 1405.66 10.6867 1405.68 10.685C1405.77 10.6752 1405.83 10.669 1405.9 10.669Z" stroke="white" stroke-width="0.796076"/>
<path d="M1397.24 32.3509L1388.43 32.439L1394.52 24.9806L1397.24 32.3509Z" stroke="white" stroke-width="0.796076"/>
<path d="M1451.8 -31.9778C1452.28 -30.9668 1452.41 -29.7513 1452.11 -28.4677L1430.79 63.8865C1429.98 67.3853 1426.33 70.3161 1422.61 70.4297L1348.74 72.588C1346.7 72.6562 1345.03 71.9632 1343.97 70.7932L1340.95 67.0104C1342.02 68.1918 1343.72 68.8961 1345.79 68.8507L1420.46 66.9877C1424.21 66.8854 1427.9 63.9433 1428.71 60.3991L1450 -33.0343C1450.29 -34.3406 1450.15 -35.5561 1449.68 -36.5898L1451.8 -31.9778Z" fill="url(#paint13_linear_513_2181)"/>
<path d="M1193.27 169.847L1290.56 97.7199C1296.88 93.0375 1305.81 94.3521 1310.49 100.659L1420.56 248.797C1425.25 255.104 1423.92 264.021 1417.6 268.703L1320.31 340.83C1313.99 345.512 1305.06 344.198 1300.38 337.89L1190.31 189.753C1185.62 183.443 1186.95 174.529 1193.27 169.847Z" fill="url(#paint14_linear_513_2181)"/>
<path d="M1198.44 169.053L1295.73 96.9265C1302.05 92.244 1310.98 93.5587 1315.66 99.8659L1425.73 248.003C1430.42 254.31 1429.09 263.227 1422.77 267.91L1325.48 340.036C1319.16 344.719 1310.23 343.404 1305.55 337.097L1195.48 188.96C1190.79 182.649 1192.12 173.736 1198.44 169.053Z" fill="url(#paint15_linear_513_2181)"/>
<path d="M1314.03 246.934L1314.03 246.934C1312.35 248.197 1310.49 249.052 1308.57 249.531C1306.65 250.01 1304.67 250.104 1302.74 249.832C1300.81 249.557 1298.93 248.919 1297.22 247.926L1297.22 247.926C1295.51 246.941 1293.97 245.593 1292.7 243.917C1291.45 242.244 1290.58 240.391 1290.1 238.473C1289.63 236.565 1289.53 234.599 1289.8 232.683C1290.38 230.754 1290.97 228.847 1291.54 226.994C1292.34 224.383 1293.11 221.88 1293.79 219.576C1294.94 215.631 1295.84 212.228 1296.17 209.816C1296.49 207.394 1296.39 204.492 1296.2 202.212C1296.1 201.068 1295.99 200.074 1295.9 199.366C1295.88 199.216 1295.86 199.079 1295.84 198.956C1295.96 199.006 1296.09 199.062 1296.22 199.122C1296.88 199.407 1297.8 199.794 1298.88 200.203C1301.02 201.017 1303.78 201.929 1306.21 202.283L1306.21 202.283C1308.62 202.635 1314.1 202.625 1319.17 202.565C1320.3 202.552 1321.42 202.536 1322.48 202.521C1323.8 202.502 1325.04 202.484 1326.12 202.474C1327.09 202.465 1327.93 202.463 1328.59 202.471C1329.26 202.479 1329.71 202.498 1329.93 202.529C1331.86 202.804 1333.73 203.45 1335.45 204.436C1337.16 205.42 1338.7 206.768 1339.97 208.444C1341.22 210.117 1342.09 211.97 1342.57 213.888C1343.04 215.807 1343.14 217.783 1342.86 219.708C1342.58 221.641 1341.94 223.513 1340.95 225.22L1340.95 225.221C1339.96 226.93 1338.61 228.473 1336.93 229.738C1335.68 230.675 1334.34 231.392 1332.94 231.896C1331.54 232.401 1330.1 232.688 1328.65 232.766C1327.2 232.845 1325.74 232.722 1324.33 232.394L1324.33 232.394C1322.92 232.071 1321.55 231.545 1320.28 230.82L1319.48 230.367L1319.69 231.259C1320.03 232.679 1320.16 234.137 1320.08 235.585C1320.01 237.032 1319.72 238.457 1319.25 239.829C1318.77 241.2 1318.09 242.507 1317.22 243.704C1316.34 244.902 1315.28 245.996 1314.03 246.934Z" stroke="white" stroke-width="0.796076"/>
<path d="M1308.97 119.652L1305.95 117.674L1302.2 120.485L1303.28 123.921L1301.59 125.185L1297.87 112.604L1299.61 111.298L1310.68 118.367L1308.97 119.652ZM1304.49 116.61L1301.56 114.637C1301.37 114.509 1301.06 114.298 1300.65 114.001C1300.25 113.705 1299.95 113.489 1299.78 113.344C1300.07 113.982 1300.35 114.717 1300.6 115.542L1301.63 118.752L1304.49 116.61Z" fill="white"/>
<path d="M1192.17 -63.9746C1192.17 -63.9746 1162.52 -2.45577 1171.96 33.5848C1174.39 42.892 1179.68 49.7447 1186.19 53.2544C1192.31 56.7863 1200.31 56.1865 1205.5 51.5107" stroke="white" stroke-width="0.796076" stroke-miterlimit="10"/>
<path d="M1449.55 293.72C1449.55 291.646 1450.13 289.5 1451.33 287.556L1537.82 147.5C1541.1 142.2 1547.63 140.304 1552.41 143.275L1642.28 199.164C1644.64 200.643 1646.13 203.03 1646.6 205.723L1647.67 214.094C1647.19 211.381 1645.7 208.961 1643.32 207.463L1552.94 150.973C1548.13 147.975 1541.57 149.877 1538.27 155.236L1451.32 296.864C1450.1 298.844 1449.52 301.013 1449.52 303.108L1449.55 293.72Z" fill="url(#paint16_linear_513_2181)"/>
<path d="M1554.11 148.568L1644.48 205.07C1649.25 208.054 1650.44 214.792 1647.12 220.11L1559.62 360.667C1556.36 365.896 1549.88 367.749 1545.13 364.826L1455.32 309.323C1450.54 306.373 1449.3 299.714 1452.52 294.447L1539.45 152.829C1542.74 147.481 1549.3 145.569 1554.11 148.568Z" fill="url(#paint17_linear_513_2181)"/>
<path d="M1258.77 37.2828C1258.77 37.2828 1277.94 20.88 1266.17 -6.40918" stroke="url(#paint18_linear_513_2181)" stroke-width="0.796076" stroke-miterlimit="10"/>
<path d="M1332.41 63.4629C1332.41 63.4629 1331.18 73.1444 1341.67 77.9263" stroke="url(#paint19_linear_513_2181)" stroke-width="0.717663" stroke-miterlimit="10"/>
<path d="M1463.71 39.8365C1463.71 39.8365 1445.89 48.9461 1449.8 71.937" stroke="url(#paint20_linear_513_2181)" stroke-width="0.796076" stroke-miterlimit="10"/>
<path d="M1404.68 262.929C1404.26 250.975 1419.72 240.728 1439.21 240.072C1458.71 239.417 1474.87 248.561 1475.29 260.515L1475.52 267.701L1404.86 269.863L1404.68 262.929Z" fill="url(#paint21_linear_513_2181)"/>
<path d="M1475.63 268.255C1475.23 255.639 1459.07 245.939 1439.55 246.588C1420.03 247.237 1404.53 257.99 1404.94 270.606C1405.35 283.221 1421.5 292.921 1441.02 292.272C1460.55 291.623 1476.04 280.87 1475.63 268.255Z" fill="url(#paint22_linear_513_2181)"/>
<path d="M1402.1 245.939C1409.38 238.564 1418.07 233.789 1427.77 232.469C1430.18 232.143 1432.58 232.039 1434.97 232.145" stroke="url(#paint23_linear_513_2181)" stroke-width="0.796076" stroke-miterlimit="10"/>
<rect width="1444.99" height="253.296" fill="#3803CE" fill-opacity="0.5"/>
</g>
<defs>
<linearGradient id="paint0_linear_513_2181" x1="1077.17" y1="11.8969" x2="1150.88" y2="-19.4172" gradientUnits="userSpaceOnUse">
<stop stop-color="#FFCA5F"/>
<stop offset="1" stop-color="#EDF900" stop-opacity="0.2"/>
</linearGradient>
<linearGradient id="paint1_linear_513_2181" x1="1070.41" y1="12.2954" x2="1157.08" y2="-22.756" gradientUnits="userSpaceOnUse">
<stop stop-color="#FFCA5F"/>
<stop offset="1" stop-color="#EDF900" stop-opacity="0.2"/>
</linearGradient>
<linearGradient id="paint2_linear_513_2181" x1="1145.05" y1="206.38" x2="959.141" y2="352.016" gradientUnits="userSpaceOnUse">
<stop offset="0.244792" stop-color="#DB6A9B"/>
<stop offset="0.427083" stop-color="#8B33B3"/>
<stop offset="0.791667" stop-color="#4200CA"/>
</linearGradient>
<linearGradient id="paint3_linear_513_2181" x1="1098.33" y1="-29.8339" x2="838.252" y2="194.152" gradientUnits="userSpaceOnUse">
<stop offset="0.0104167" stop-color="#ADB1FF"/>
<stop offset="0.53341" stop-color="#311FD0"/>
<stop offset="1" stop-color="#2E0C90"/>
</linearGradient>
<linearGradient id="paint4_linear_513_2181" x1="1333.17" y1="29.7981" x2="1138.67" y2="253.81" gradientUnits="userSpaceOnUse">
<stop offset="0.228083" stop-color="#DB6A9B"/>
<stop offset="0.526042" stop-color="#4200CA"/>
</linearGradient>
<linearGradient id="paint5_linear_513_2181" x1="1088.39" y1="255.312" x2="1153.34" y2="360.686" gradientUnits="userSpaceOnUse">
<stop stop-color="#EDF900"/>
<stop offset="0.0635" stop-color="#BEB537"/>
<stop offset="0.1589" stop-color="#7C5585"/>
<stop offset="0.2256" stop-color="#5218B7"/>
<stop offset="0.2572" stop-color="#4200CA"/>
<stop offset="0.515" stop-color="#7423BB"/>
<stop offset="1" stop-color="#DB6A9B"/>
</linearGradient>
<linearGradient id="paint6_linear_513_2181" x1="997.495" y1="18.9153" x2="996.732" y2="-115.288" gradientUnits="userSpaceOnUse">
<stop offset="0.228083" stop-color="#DB6A9B"/>
<stop offset="0.526042" stop-color="#4200CA"/>
</linearGradient>
<linearGradient id="paint7_linear_513_2181" x1="997.462" y1="-63.9712" x2="994.445" y2="16.0942" gradientUnits="userSpaceOnUse">
<stop stop-color="#F4426C"/>
<stop offset="1" stop-color="#FBF2B1"/>
</linearGradient>
<linearGradient id="paint8_linear_513_2181" x1="1514.33" y1="134.878" x2="1441.25" y2="252.478" gradientUnits="userSpaceOnUse">
<stop offset="0.228083" stop-color="#DB6A9B"/>
<stop offset="0.526042" stop-color="#4200CA"/>
</linearGradient>
<linearGradient id="paint9_linear_513_2181" x1="1461.95" y1="182.46" x2="1492.55" y2="115.115" gradientUnits="userSpaceOnUse">
<stop stop-color="#F4426C"/>
<stop offset="1" stop-color="#FBF2B1"/>
</linearGradient>
<linearGradient id="paint10_linear_513_2181" x1="997.001" y1="10.1895" x2="945.187" y2="-134.726" gradientUnits="userSpaceOnUse">
<stop offset="0.228083" stop-color="#DB6A9B"/>
<stop offset="0.526042" stop-color="#4200CA"/>
</linearGradient>
<linearGradient id="paint11_linear_513_2181" x1="1174.31" y1="182.81" x2="1174.78" y2="85.1013" gradientUnits="userSpaceOnUse">
<stop stop-color="#EBF0FF"/>
<stop offset="0.0532" stop-color="#ACBFFB"/>
<stop offset="0.1885" stop-color="#86A2FA"/>
<stop offset="0.3298" stop-color="#678AF9"/>
<stop offset="0.4764" stop-color="#4F77F8"/>
<stop offset="0.6307" stop-color="#3D6AF7"/>
<stop offset="0.7975" stop-color="#3363F7"/>
<stop offset="1" stop-color="#3060F7"/>
</linearGradient>
<linearGradient id="paint12_linear_513_2181" x1="1383.52" y1="120.55" x2="1499.13" y2="26.558" gradientUnits="userSpaceOnUse">
<stop stop-color="#9358F7"/>
<stop offset="0.0666667" stop-color="#9259F7"/>
<stop offset="0.133333" stop-color="#8E5DF6"/>
<stop offset="0.2" stop-color="#8862F5"/>
<stop offset="0.266667" stop-color="#806BF4"/>
<stop offset="0.333333" stop-color="#7575F2"/>
<stop offset="0.4" stop-color="#6882F0"/>
<stop offset="0.466667" stop-color="#5990EE"/>
<stop offset="0.533333" stop-color="#4A9FEB"/>
<stop offset="0.6" stop-color="#3BADE9"/>
<stop offset="0.666667" stop-color="#2EBAE7"/>
<stop offset="0.733333" stop-color="#23C4E5"/>
<stop offset="0.8" stop-color="#1BCDE4"/>
<stop offset="0.866667" stop-color="#15D2E3"/>
<stop offset="0.933333" stop-color="#11D6E2"/>
<stop offset="1" stop-color="#10D7E2"/>
</linearGradient>
<linearGradient id="paint13_linear_513_2181" x1="1393.66" y1="13.945" x2="1438.06" y2="58.1074" gradientUnits="userSpaceOnUse">
<stop stop-color="#1A34AD"/>
<stop offset="1" stop-color="#3660FA"/>
</linearGradient>
<linearGradient id="paint14_linear_513_2181" x1="1308.31" y1="229.591" x2="1260.81" y2="103.326" gradientUnits="userSpaceOnUse">
<stop stop-color="#1A34AD"/>
<stop offset="1" stop-color="#3660FA"/>
</linearGradient>
<linearGradient id="paint15_linear_513_2181" x1="1419.29" y1="25.531" x2="1111.2" y2="132.082" gradientUnits="userSpaceOnUse">
<stop stop-color="#9358F7"/>
<stop offset="0.0666667" stop-color="#9259F7"/>
<stop offset="0.133333" stop-color="#8E5DF6"/>
<stop offset="0.2" stop-color="#8862F5"/>
<stop offset="0.266667" stop-color="#806BF4"/>
<stop offset="0.333333" stop-color="#7575F2"/>
<stop offset="0.4" stop-color="#6882F0"/>
<stop offset="0.466667" stop-color="#5990EE"/>
<stop offset="0.533333" stop-color="#4A9FEB"/>
<stop offset="0.6" stop-color="#3BADE9"/>
<stop offset="0.666667" stop-color="#2EBAE7"/>
<stop offset="0.733333" stop-color="#23C4E5"/>
<stop offset="0.8" stop-color="#1BCDE4"/>
<stop offset="0.866667" stop-color="#15D2E3"/>
<stop offset="0.933333" stop-color="#11D6E2"/>
<stop offset="1" stop-color="#10D7E2"/>
</linearGradient>
<linearGradient id="paint16_linear_513_2181" x1="1546.32" y1="217.873" x2="1479.66" y2="151.919" gradientUnits="userSpaceOnUse">
<stop stop-color="#1A34AD"/>
<stop offset="1" stop-color="#3660FA"/>
</linearGradient>
<linearGradient id="paint17_linear_513_2181" x1="1738.97" y1="209.566" x2="1502.55" y2="67.6733" gradientUnits="userSpaceOnUse">
<stop stop-color="#8DE6E5"/>
<stop offset="0.490968" stop-color="#75AFF2"/>
<stop offset="1" stop-color="#6A8DFD"/>
</linearGradient>
<linearGradient id="paint18_linear_513_2181" x1="1280.71" y1="14.6304" x2="1158.3" y2="163.8" gradientUnits="userSpaceOnUse">
<stop stop-color="#EBF0FF"/>
<stop offset="0.0532" stop-color="#ACBFFB"/>
<stop offset="0.1885" stop-color="#86A2FA"/>
<stop offset="0.3298" stop-color="#678AF9"/>
<stop offset="0.4764" stop-color="#4F77F8"/>
<stop offset="0.6307" stop-color="#3D6AF7"/>
<stop offset="0.7975" stop-color="#3363F7"/>
<stop offset="1" stop-color="#3060F7"/>
</linearGradient>
<linearGradient id="paint19_linear_513_2181" x1="1335.69" y1="77.8609" x2="1337.66" y2="64.2096" gradientUnits="userSpaceOnUse">
<stop stop-color="#BDCCFC"/>
<stop offset="0.1991" stop-color="#BAC9FC"/>
<stop offset="0.3661" stop-color="#AFC2FC"/>
<stop offset="0.5214" stop-color="#9EB4FB"/>
<stop offset="0.6698" stop-color="#85A1FA"/>
<stop offset="0.8133" stop-color="#6689F9"/>
<stop offset="0.951" stop-color="#406CF8"/>
<stop offset="1" stop-color="#3060F7"/>
</linearGradient>
<linearGradient id="paint20_linear_513_2181" x1="1443.88" y1="61.8244" x2="1468.59" y2="49.6954" gradientUnits="userSpaceOnUse">
<stop stop-color="#BDCCFC"/>
<stop offset="0.0532" stop-color="#ACBFFB"/>
<stop offset="0.1885" stop-color="#86A2FA"/>
<stop offset="0.3298" stop-color="#678AF9"/>
<stop offset="0.4764" stop-color="#4F77F8"/>
<stop offset="0.6307" stop-color="#3D6AF7"/>
<stop offset="0.7975" stop-color="#3363F7"/>
<stop offset="1" stop-color="#3060F7"/>
</linearGradient>
<linearGradient id="paint21_linear_513_2181" x1="1482.06" y1="219.327" x2="1415.21" y2="296.843" gradientUnits="userSpaceOnUse">
<stop offset="0.144725" stop-color="#DB6A9B"/>
<stop offset="0.769405" stop-color="#4200CA"/>
</linearGradient>
<linearGradient id="paint22_linear_513_2181" x1="1442.72" y1="313.106" x2="1481.12" y2="249.149" gradientUnits="userSpaceOnUse">
<stop stop-color="#7EAEFF"/>
<stop offset="1" stop-color="#FCA6E9"/>
</linearGradient>
<linearGradient id="paint23_linear_513_2181" x1="1451.81" y1="257.385" x2="1237.43" y2="349.169" gradientUnits="userSpaceOnUse">
<stop stop-color="#EBF0FF"/>
<stop offset="0.0532" stop-color="#ACBFFB"/>
<stop offset="0.1885" stop-color="#86A2FA"/>
<stop offset="0.3298" stop-color="#678AF9"/>
<stop offset="0.4764" stop-color="#4F77F8"/>
<stop offset="0.6307" stop-color="#3D6AF7"/>
<stop offset="0.7975" stop-color="#3363F7"/>
<stop offset="1" stop-color="#3060F7"/>
</linearGradient>
<clipPath id="clip0_513_2181">
<rect width="1440" height="253" fill="white"/>
</clipPath>
</defs>
</svg>
