<svg width="80" height="80" fill="none" xmlns="http://www.w3.org/2000/svg"><path d="M61.9 4H18.098C14.744 4 12 6.708 12 10.017v59.966C12 73.293 14.744 76 18.098 76H61.9c3.353 0 6.097-2.707 6.097-6.017V10.017C68.1 6.707 65.253 4 61.9 4z" fill="#E3ECFF"/><path d="M62.712 58.953H51.33v11.23h11.383v-11.23z" stroke="#fff" stroke-width="1.034" stroke-miterlimit="10"/><path d="M62.712 47.922H51.33v11.231h11.383V47.922z" stroke="#fff" stroke-width="1.034" stroke-miterlimit="10"/><path d="M62.712 36.891H51.33v11.231h11.383v-11.23zm0-11.231H51.33v11.23h11.383V25.66zM51.33 58.953H39.948v11.23H51.33v-11.23z" stroke="#fff" stroke-width="1.034" stroke-miterlimit="10"/><path d="M51.33 47.922H39.948v11.231H51.33V47.922z" stroke="#fff" stroke-width="1.034" stroke-miterlimit="10"/><path d="M51.33 36.891H39.948v11.231H51.33v-11.23zm0-11.231H39.948v11.23H51.33V25.66zM40.354 58.953H28.972v11.23h11.382v-11.23z" stroke="#fff" stroke-width="1.034" stroke-miterlimit="10"/><path d="M40.354 47.922H28.972v11.231h11.382V47.922z" stroke="#fff" stroke-width="1.034" stroke-miterlimit="10"/><path d="M40.354 36.891H28.972v11.231h11.382v-11.23zm0-11.231H28.972v11.23h11.382V25.66zm-11.28 33.293H17.69v11.23h11.383v-11.23z" stroke="#fff" stroke-width="1.034" stroke-miterlimit="10"/><path d="M29.074 47.922H17.69v11.231h11.383V47.922z" stroke="#fff" stroke-width="1.034" stroke-miterlimit="10"/><path d="M29.074 36.891H17.69v11.231h11.383v-11.23zm0-11.231H17.69v11.23h11.383V25.66z" stroke="#fff" stroke-width="1.034" stroke-miterlimit="10"/><path d="M56.818 20.345H23.484c-3.05 0-5.59-2.507-5.59-5.515 0-3.009 2.54-5.516 5.59-5.516h33.334c3.049 0 5.59 2.507 5.59 5.516 0 3.008-2.541 5.515-5.59 5.515z" fill="#fff"/><path d="M40.253 59.153c6.301 0 11.382-5.014 11.382-11.231 0-6.218-5.081-11.232-11.382-11.232-6.301 0-11.382 5.014-11.382 11.232 0 6.217 5.081 11.23 11.382 11.23z" fill="url(#paint0_linear)"/><path d="M40.252 41.103l1.525 4.513h4.776l-3.861 2.807 1.524 4.513-3.862-2.808-3.862 2.808 1.525-4.513-3.862-2.807h4.878l1.22-4.513z" fill="#fff"/><path d="M57.123 56.947c1.83 0 3.557-1.504 3.557-3.51 0-2.005-1.524-3.51-3.557-3.51-1.83 0-3.557 1.505-3.557 3.51 0 2.006 1.524 3.51 3.557 3.51z" fill="url(#paint1_linear)"/><path d="M23.28 45.715c1.83 0 3.558-1.504 3.558-3.51 0-1.804-1.525-3.51-3.557-3.51-1.83 0-3.557 1.505-3.557 3.51 0 2.006 1.524 3.51 3.557 3.51z" fill="url(#paint2_linear)"/><path d="M34.46 34.685c1.83 0 3.557-1.504 3.557-3.51 0-1.805-1.525-3.51-3.557-3.51-1.83 0-3.557 1.505-3.557 3.51.203 1.906 1.727 3.51 3.557 3.51z" fill="url(#paint3_linear)"/><path d="M45.842 67.978c1.83 0 3.557-1.505 3.557-3.51 0-1.805-1.524-3.51-3.557-3.51-1.83 0-3.557 1.504-3.557 3.51 0 2.005 1.626 3.51 3.557 3.51z" fill="url(#paint4_linear)"/><defs><linearGradient id="paint0_linear" x1="31.857" y1="56.165" x2="46.432" y2="41.394" gradientUnits="userSpaceOnUse"><stop stop-color="#FA6400"/><stop offset="1" stop-color="#FFB500" stop-opacity=".95"/></linearGradient><linearGradient id="paint1_linear" x1="53.58" y1="53.436" x2="60.69" y2="53.436" gradientUnits="userSpaceOnUse"><stop stop-color="#211087" stop-opacity=".9"/><stop offset=".109" stop-color="#270D98" stop-opacity=".911"/><stop offset=".3" stop-color="#2E09B0" stop-opacity=".93"/><stop offset=".502" stop-color="#3405C1" stop-opacity=".95"/><stop offset=".724" stop-color="#3704CB" stop-opacity=".972"/><stop offset="1" stop-color="#3803CE"/></linearGradient><linearGradient id="paint2_linear" x1="19.727" y1="42.246" x2="26.836" y2="42.246" gradientUnits="userSpaceOnUse"><stop stop-color="#211087" stop-opacity=".9"/><stop offset=".109" stop-color="#270D98" stop-opacity=".911"/><stop offset=".3" stop-color="#2E09B0" stop-opacity=".93"/><stop offset=".502" stop-color="#3405C1" stop-opacity=".95"/><stop offset=".724" stop-color="#3704CB" stop-opacity=".972"/><stop offset="1" stop-color="#3803CE"/></linearGradient><linearGradient id="paint3_linear" x1="30.899" y1="31.222" x2="38.008" y2="31.222" gradientUnits="userSpaceOnUse"><stop stop-color="#211087" stop-opacity=".9"/><stop offset=".109" stop-color="#270D98" stop-opacity=".911"/><stop offset=".3" stop-color="#2E09B0" stop-opacity=".93"/><stop offset=".502" stop-color="#3405C1" stop-opacity=".95"/><stop offset=".724" stop-color="#3704CB" stop-opacity=".972"/><stop offset="1" stop-color="#3803CE"/></linearGradient><linearGradient id="paint4_linear" x1="42.239" y1="64.46" x2="49.349" y2="64.46" gradientUnits="userSpaceOnUse"><stop stop-color="#211087" stop-opacity=".9"/><stop offset=".109" stop-color="#270D98" stop-opacity=".911"/><stop offset=".3" stop-color="#2E09B0" stop-opacity=".93"/><stop offset=".502" stop-color="#3405C1" stop-opacity=".95"/><stop offset=".724" stop-color="#3704CB" stop-opacity=".972"/><stop offset="1" stop-color="#3803CE"/></linearGradient></defs></svg>