<svg width="80" height="80" fill="none" xmlns="http://www.w3.org/2000/svg"><path d="M39.704 8.083l-33.89 5.521c-1.189.205-1.982 1.33-1.783 2.557l8.422 53.99c.199 1.125 1.289 1.943 2.478 1.84l33.89-5.521c1.09-.205 1.981-1.33 1.783-2.557L42.082 9.821c-.198-1.125-1.189-2.045-2.378-1.738z" fill="url(#paint0_linear)"/><path d="M11.164 16.212h-.1c-.495.102-.99.409-1.188 1.124-.298-.409-.793-.715-1.388-.613-.693.102-1.189.716-1.09 1.534.298 1.942 2.973 2.965 3.072 2.863 0 0 2.28-1.739 2.081-3.784-.099-.715-.594-1.227-1.387-1.124z" fill="url(#paint1_linear)"/><path d="M37.027 35.333c1.19 6.544-5.45 12.782-7.531 14.52l-.793.614c-.099 0-.297-.102-.495-.205h0c-2.477-1.022-10.504-4.806-11.693-11.554-.496-2.966 1.486-5.829 4.459-6.34 1.883-.307 3.666.409 4.855 1.84.298.307.496.512.694.818.1-.409.198-.715.297-1.022.694-1.738 2.18-2.965 4.063-3.272l.496-.102c2.675-.205 5.153 1.738 5.648 4.703z" stroke="#fff" stroke-width=".912"/><path d="M30.98 66.418l33.89 5.522a2.153 2.153 0 002.478-1.738l8.62-54.093c.2-1.227-.594-2.25-1.684-2.454l-33.89-5.624a2.153 2.153 0 00-2.477 1.739l-8.62 54.092c-.199 1.227.495 2.352 1.684 2.556z" fill="url(#paint2_linear)"/><path d="M42.593 16.319l-.991 1.329 1.586.307-.595-1.636z" fill="url(#paint3_linear)"/><path d="M40.513 15.91c.198.307.594.511.99.613.397.103.793 0 1.09-.204.199.307.496.511.892.613.397.103.793 0 1.09-.306.298-.205.496-.512.595-1.023.297-1.534-1.883-4.295-1.883-4.295s-2.873 1.841-3.072 3.375c0 .511.1.92.297 1.227z" fill="url(#paint4_linear)"/><path d="M51.791 44.74l-3.864 5.011 5.846 1.023-1.982-6.033z" fill="url(#paint5_linear)"/><path d="M44.162 43.513c.892 1.227 2.18 2.045 3.666 2.25 1.487.204 2.874-.102 4.063-.92.892 1.124 2.08 1.942 3.567 2.147 1.487.204 2.973-.102 4.162-1.023 1.19-.92 1.982-2.147 2.28-3.783.99-5.93-6.937-15.952-6.937-15.952S44.36 33.186 43.369 39.116c-.396 1.739-.1 3.17.793 4.397z" fill="url(#paint6_linear)"/><path d="M63.485 64.373l.99-1.329-1.585-.307.595 1.636z" fill="url(#paint7_linear)"/><path d="M65.566 64.782c-.199-.306-.595-.51-.991-.613-.397-.102-.793 0-1.09.204-.199-.306-.496-.511-.892-.613-.397-.102-.793 0-1.09.307-.297.204-.496.51-.595 1.022-.297 1.534 1.883 4.295 1.883 4.295s2.874-1.84 3.072-3.375c0-.51-.1-.92-.297-1.227z" fill="url(#paint8_linear)"/><defs><linearGradient id="paint0_linear" x1="47.598" y1="10.887" x2="-1.269" y2="48.374" gradientUnits="userSpaceOnUse"><stop stop-color="#211087" stop-opacity=".9"/><stop offset=".109" stop-color="#270D98" stop-opacity=".911"/><stop offset=".3" stop-color="#2E09B0" stop-opacity=".93"/><stop offset=".502" stop-color="#3405C1" stop-opacity=".95"/><stop offset=".724" stop-color="#3704CB" stop-opacity=".972"/><stop offset="1" stop-color="#3803CE"/></linearGradient><linearGradient id="paint1_linear" x1="10.172" y1="16.203" x2="9.53" y2="21.091" gradientUnits="userSpaceOnUse"><stop stop-color="#fff"/><stop offset="1" stop-color="#fff"/></linearGradient><linearGradient id="paint2_linear" x1="32.913" y1="66.81" x2="45.201" y2="55.731" gradientUnits="userSpaceOnUse"><stop stop-color="#EBF1FF" stop-opacity=".5"/><stop offset="1" stop-color="#DDE7FF"/></linearGradient><linearGradient id="paint3_linear" x1="41.544" y1="17.094" x2="43.098" y2="17.075" gradientUnits="userSpaceOnUse"><stop stop-color="#FA6400"/><stop offset="1" stop-color="#FFB500" stop-opacity=".95"/></linearGradient><linearGradient id="paint4_linear" x1="40.247" y1="14.131" x2="45.235" y2="14.069" gradientUnits="userSpaceOnUse"><stop stop-color="#FA6400"/><stop offset="1" stop-color="#FFB500" stop-opacity=".95"/></linearGradient><linearGradient id="paint5_linear" x1="47.932" y1="47.847" x2="53.762" y2="47.775" gradientUnits="userSpaceOnUse"><stop stop-color="#FA6400"/><stop offset="1" stop-color="#FFB500" stop-opacity=".95"/></linearGradient><linearGradient id="paint6_linear" x1="43.066" y1="36.729" x2="61.781" y2="36.498" gradientUnits="userSpaceOnUse"><stop stop-color="#FA6400"/><stop offset="1" stop-color="#FFB500" stop-opacity=".95"/></linearGradient><linearGradient id="paint7_linear" x1="64.534" y1="63.598" x2="62.98" y2="63.617" gradientUnits="userSpaceOnUse"><stop stop-color="#FA6400"/><stop offset="1" stop-color="#FFB500" stop-opacity=".95"/></linearGradient><linearGradient id="paint8_linear" x1="65.831" y1="66.561" x2="60.843" y2="66.623" gradientUnits="userSpaceOnUse"><stop stop-color="#FA6400"/><stop offset="1" stop-color="#FFB500" stop-opacity=".95"/></linearGradient></defs></svg>