<svg width="80" height="80" fill="none" xmlns="http://www.w3.org/2000/svg"><g clip-path="url(#clip0)"><path d="M25.43 60.758c14.105 0 25.328-11.325 25.328-25.43A25.244 25.244 0 0025.43 10C11.428 10 0 21.325 0 35.328c.309 13.899 11.531 25.43 25.43 25.43z" fill="url(#paint0_linear)"/><path d="M49.523 26.782c-.824-2.368-2.06-4.633-3.604-6.486a14.088 14.088 0 00-4.633 2.368c1.339 1.75 2.574 3.81 3.398 5.971.72 2.265 1.235 4.427 1.235 6.692 1.75-.206 3.398-.514 5.148-1.235-.412-2.368-.72-4.942-1.544-7.31zM41.08 55.816a22.985 22.985 0 005.148-5.354c-1.03-1.339-2.266-2.78-3.604-3.81a24.13 24.13 0 01-4.633 5.148c-1.853 1.545-3.913 2.368-6.177 3.089.72 1.75 1.75 3.089 2.78 4.427 2.059-.927 4.426-1.956 6.486-3.5z" fill="#D9EAFF"/><path d="M10.913 56.33c2.06 1.545 4.325 2.575 6.693 3.295 1.03-1.544 1.75-2.883 2.573-4.633-2.059-.515-4.324-1.544-6.177-2.78-1.853-1.338-3.603-2.883-4.942-4.839-1.338 1.236-2.368 2.574-3.397 3.913 1.441 1.956 3.191 3.81 5.25 5.045z" fill="url(#paint1_linear)"/><path d="M1.339 27.811C.618 30.18.309 32.753.309 35.224c1.75.515 3.398.72 5.148.824-.206-2.265.206-4.427.824-6.898a21.72 21.72 0 013.088-6.178c-1.544-.823-3.088-1.75-4.839-2.059-1.338 2.265-2.574 4.53-3.191 6.898z" fill="url(#paint2_linear)"/><path d="M18.635 16.383c4.633-1.75 9.472-1.545 13.694 0l-.206-5.354c-2.368-.515-4.942-.824-7.413-.824-2.574 0-5.148.515-7.413 1.338l.206 5.354c.206-.412.617-.412 1.132-.514z" fill="url(#paint3_linear)"/><path d="M25.43 48.094c6.898 0 12.561-5.663 12.561-12.561s-5.663-12.56-12.56-12.56c-6.899 0-12.561 5.662-12.561 12.56 0 6.898 5.765 12.56 12.56 12.56z" stroke="#fff" stroke-width="1.034" stroke-miterlimit="10"/><path d="M39.02 64.052c11.017 8.546 26.873 6.693 35.624-4.324 8.546-11.016 6.692-27.077-4.324-35.623-11.016-8.545-26.872-6.692-35.623 4.324-8.546 11.017-6.693 26.975 4.324 35.623z" fill="url(#paint4_linear)"/><path d="M79.174 50.977c.721-2.574.824-4.942.824-7.413-1.75-.515-3.398-.72-5.148-.824.206 2.265 0 4.427-.72 6.898-.515 2.265-1.75 4.325-2.883 6.178 1.544.823 3.088 1.544 4.839 2.059 1.338-2.06 2.368-4.324 3.088-6.898z" fill="url(#paint5_linear)"/><path d="M55.7 69.714c2.573-.206 5.147-.514 7.412-1.338-.205-1.75-.308-3.398-.72-5.148-2.06.72-4.324 1.339-6.692 1.339-2.369.205-4.634-.31-6.899-.824-.309 1.75-.514 3.397-.514 5.148 2.265.411 4.839.823 7.413.823z" fill="url(#paint6_linear)"/><path d="M60.23 24.414c4.839 1.338 8.545 4.118 11.12 8.03l2.882-4.427a27.476 27.476 0 00-5.662-5.148c-2.06-1.544-4.428-2.574-6.899-3.294l-2.882 4.427c.411.206.926.412 1.441.412z" fill="url(#paint7_linear)"/><path d="M54.773 56.639c6.898 0 12.56-5.663 12.56-12.56 0-6.899-5.662-12.562-12.56-12.562-6.898 0-12.56 5.663-12.56 12.561s5.559 12.56 12.56 12.56z" fill="#fff"/><path d="M54.773 53.345c5.045 0 9.267-4.222 9.267-9.267 0-5.045-4.222-9.266-9.267-9.266-5.044 0-9.266 4.221-9.266 9.266s4.119 9.267 9.267 9.267z" fill="url(#paint8_linear)"/></g><defs><linearGradient id="paint0_linear" x1="29.837" y1="23.44" x2="19.892" y2="50.606" gradientUnits="userSpaceOnUse"><stop stop-color="#211087" stop-opacity=".9"/><stop offset=".109" stop-color="#270D98" stop-opacity=".911"/><stop offset=".3" stop-color="#2E09B0" stop-opacity=".93"/><stop offset=".502" stop-color="#3405C1" stop-opacity=".95"/><stop offset=".724" stop-color="#3704CB" stop-opacity=".972"/><stop offset="1" stop-color="#3803CE"/></linearGradient><linearGradient id="paint1_linear" x1="5.663" y1="59.625" x2="17.837" y2="45.866" gradientUnits="userSpaceOnUse"><stop stop-color="#EBF1FF"/><stop offset="1" stop-color="#DDE7FF"/></linearGradient><linearGradient id="paint2_linear" x1=".309" y1="36.048" x2="13.358" y2="28.597" gradientUnits="userSpaceOnUse"><stop stop-color="#EBF1FF"/><stop offset="1" stop-color="#DDE7FF"/></linearGradient><linearGradient id="paint3_linear" x1="17.297" y1="16.897" x2="22.433" y2="5.895" gradientUnits="userSpaceOnUse"><stop stop-color="#EBF1FF"/><stop offset="1" stop-color="#DDE7FF"/></linearGradient><linearGradient id="paint4_linear" x1="29.341" y1="69.408" x2="80.001" y2="21.089" gradientUnits="userSpaceOnUse"><stop stop-color="#EBF1FF" stop-opacity=".5"/><stop offset=".494" stop-color="#DDE7FF"/></linearGradient><linearGradient id="paint5_linear" x1="71.247" y1="57.875" x2="84.062" y2="50.807" gradientUnits="userSpaceOnUse"><stop stop-color="#EBF1FF"/><stop offset="1" stop-color="#fff"/></linearGradient><linearGradient id="paint6_linear" x1="48.287" y1="69.714" x2="53.208" y2="58.984" gradientUnits="userSpaceOnUse"><stop stop-color="#EBF1FF"/><stop offset="1" stop-color="#fff"/></linearGradient><linearGradient id="paint7_linear" x1="58.789" y1="32.444" x2="71.556" y2="17.831" gradientUnits="userSpaceOnUse"><stop stop-color="#EBF1FF"/><stop offset="1" stop-color="#fff"/></linearGradient><linearGradient id="paint8_linear" x1="45.533" y1="44.119" x2="64.055" y2="44.119" gradientUnits="userSpaceOnUse"><stop stop-color="#FA6400"/><stop offset="1" stop-color="#FFB500" stop-opacity=".95"/></linearGradient><clipPath id="clip0"><path fill="#fff" d="M0 0h80v80H0z"/></clipPath></defs></svg>