<svg width="80" height="80" fill="none" xmlns="http://www.w3.org/2000/svg"><path fill-rule="evenodd" clip-rule="evenodd" d="M8.726 76h38.458c2.739 0 4.711-2.185 4.711-4.698V32.953c0-2.731-2.191-4.698-4.711-4.698H8.726c-2.74 0-4.712 2.185-4.712 4.698v38.24C3.795 73.924 6.096 76 8.726 76z" fill="url(#paint0_linear)"/><path d="M40.062 68.68c-2.41 0-4.602-1.966-4.602-4.588 0-2.404 1.972-4.59 4.602-4.59 2.41 0 4.602 1.967 4.602 4.59-.22 2.622-2.082 4.588-4.602 4.588zm-24.214 0c-2.41 0-4.602-1.966-4.602-4.588 0-2.404 1.972-4.59 4.602-4.59 2.41 0 4.602 1.967 4.602 4.59-.11 2.622-2.082 4.588-4.602 4.588zm0-24.036c-2.41 0-4.602-1.966-4.602-4.589 0-2.403 1.972-4.588 4.602-4.588 2.41 0 4.602 1.966 4.602 4.588-.11 2.623-2.082 4.59-4.602 4.59z" stroke="#fff" stroke-width="1.101"/><path fill-rule="evenodd" clip-rule="evenodd" d="M32.392 52.291H71.29c2.739 0 4.711-2.185 4.711-4.698V8.698C76 5.967 73.809 4 71.289 4H32.392c-2.739 0-4.71 2.185-4.71 4.698v38.786c0 2.622 1.971 4.807 4.71 4.807z" fill="url(#paint1_linear)"/><path fill-rule="evenodd" clip-rule="evenodd" d="M40.062 44.644c-2.41 0-4.602-1.966-4.602-4.589 0-2.403 1.972-4.588 4.602-4.588 2.41 0 4.602 1.966 4.602 4.588-.22 2.623-2.082 4.59-4.602 4.59z" fill="url(#paint2_linear)"/><path fill-rule="evenodd" clip-rule="evenodd" d="M52.114 32.407c-2.41 0-4.601-1.966-4.601-4.588 0-2.404 1.972-4.59 4.602-4.59 2.41 0 4.601 1.967 4.601 4.59 0 2.84-2.081 4.588-4.602 4.588z" fill="url(#paint3_linear)"/><path fill-rule="evenodd" clip-rule="evenodd" d="M40.062 20.498c-2.41 0-4.602-1.967-4.602-4.589 0-2.404 1.972-4.589 4.602-4.589 2.41 0 4.602 1.967 4.602 4.59-.22 2.73-2.082 4.588-4.602 4.588z" fill="url(#paint4_linear)"/><path fill-rule="evenodd" clip-rule="evenodd" d="M64.166 44.644c-2.41 0-4.601-1.966-4.601-4.589 0-2.403 1.972-4.588 4.601-4.588 2.41 0 4.602 1.966 4.602 4.588 0 2.623-2.082 4.59-4.602 4.59z" fill="url(#paint5_linear)"/><path fill-rule="evenodd" clip-rule="evenodd" d="M64.166 20.498c-2.41 0-4.601-1.967-4.601-4.589 0-2.404 1.972-4.589 4.601-4.589 2.41 0 4.602 1.967 4.602 4.59 0 2.73-2.082 4.588-4.602 4.588z" fill="url(#paint6_linear)"/><defs><linearGradient id="paint0_linear" x1="10.981" y1="68.934" x2="39.579" y2="40.254" gradientUnits="userSpaceOnUse"><stop stop-color="#211087" stop-opacity=".9"/><stop offset=".109" stop-color="#270D98" stop-opacity=".911"/><stop offset=".3" stop-color="#2E09B0" stop-opacity=".93"/><stop offset=".502" stop-color="#3405C1" stop-opacity=".95"/><stop offset=".724" stop-color="#3704CB" stop-opacity=".972"/><stop offset="1" stop-color="#3803CE"/></linearGradient><linearGradient id="paint1_linear" x1="31.219" y1="46.072" x2="60.224" y2="15.421" gradientUnits="userSpaceOnUse"><stop stop-color="#EBF1FF" stop-opacity=".5"/><stop offset=".494" stop-color="#DDE7FF"/></linearGradient><linearGradient id="paint2_linear" x1="36.884" y1="43.285" x2="68.342" y2="11.738" gradientUnits="userSpaceOnUse"><stop stop-color="#FA6400"/><stop offset="1" stop-color="#FFB500" stop-opacity=".95"/></linearGradient><linearGradient id="paint3_linear" x1="36.827" y1="43.23" x2="68.284" y2="11.684" gradientUnits="userSpaceOnUse"><stop stop-color="#FA6400"/><stop offset="1" stop-color="#FFB500" stop-opacity=".95"/></linearGradient><linearGradient id="paint4_linear" x1="24.766" y1="31.201" x2="56.224" y2="-.346" gradientUnits="userSpaceOnUse"><stop stop-color="#FA6400"/><stop offset="1" stop-color="#FFB500" stop-opacity=".95"/></linearGradient><linearGradient id="paint5_linear" x1="48.946" y1="55.312" x2="80.403" y2="23.765" gradientUnits="userSpaceOnUse"><stop stop-color="#FA6400"/><stop offset="1" stop-color="#FFB500" stop-opacity=".95"/></linearGradient><linearGradient id="paint6_linear" x1="36.828" y1="43.228" x2="68.285" y2="11.682" gradientUnits="userSpaceOnUse"><stop stop-color="#FA6400"/><stop offset="1" stop-color="#FFB500" stop-opacity=".95"/></linearGradient></defs></svg>