<svg width="81" height="80" fill="none" xmlns="http://www.w3.org/2000/svg"><path d="M33.18 69.966H5.544c-3.133 0-5.482-2.574-5.482-5.483V36.735c0-3.133 2.573-5.483 5.482-5.483H33.18c3.133 0 5.483 2.574 5.483 5.483v27.636c0 3.245-2.35 5.595-5.483 5.595z" fill="url(#paint0_linear)"/><path d="M19.307 54.749c2.126 0 3.916-1.79 3.916-3.916s-1.79-3.916-3.916-3.916-3.916 1.79-3.916 3.916 1.79 3.916 3.916 3.916zM9.236 65.043c2.126 0 3.916-1.79 3.916-3.916s-1.79-3.916-3.916-3.916S5.32 59 5.32 61.127c-.224 2.126 1.567 3.916 3.916 3.916z" stroke="#D9EAFF" stroke-width="1.097" stroke-miterlimit="10"/><path d="M46.943 31.252h27.636c3.133 0 5.482 2.574 5.482 5.483v27.636c0 3.133-2.573 5.483-5.482 5.483H46.943c-3.133 0-5.483-2.574-5.483-5.483V36.735c0-3.133 2.573-5.483 5.483-5.483z" fill="url(#paint1_linear)"/><path d="M50.747 56.763c-2.126 0-3.916 1.79-3.916 3.916s1.79 3.916 3.916 3.916 3.916-1.79 3.916-3.916-1.79-3.916-3.916-3.916zM71.11 36.175c-2.126 0-3.916 1.79-3.916 3.916s1.79 3.916 3.916 3.916 3.916-1.79 3.916-3.916-1.79-3.916-3.916-3.916z" fill="#fff"/><path d="M9.236 44.455c2.126 0 3.916-1.79 3.916-3.916s-1.79-3.916-3.916-3.916c-2.125 0-3.916 1.79-3.916 3.916s1.567 3.916 3.916 3.916zM29.6 65.043c2.127 0 3.917-1.79 3.917-3.916s-1.79-3.916-3.916-3.916-3.916 1.79-3.916 3.916 1.79 3.916 3.916 3.916z" stroke="#D9EAFF" stroke-width="1.097" stroke-miterlimit="10"/><path d="M53.88 49.601H26.243c-3.133 0-5.482-2.573-5.482-5.482V16.483c0-3.133 2.573-5.483 5.482-5.483H53.88c3.133 0 5.482 2.573 5.482 5.483v27.636c-.112 3.133-2.461 5.482-5.482 5.482z" fill="url(#paint2_linear)"/><path d="M50.187 24.091c2.126 0 3.916-1.79 3.916-3.916s-1.79-3.916-3.916-3.916c-2.125 0-3.916 1.79-3.916 3.916-.223 2.126 1.679 3.916 3.916 3.916zM29.6 44.455c2.127 0 3.917-1.79 3.917-3.916s-1.79-3.916-3.916-3.916-3.916 1.79-3.916 3.916 1.79 3.916 3.916 3.916zm0-20.364c2.127 0 3.917-1.79 3.917-3.916s-1.79-3.916-3.916-3.916-3.916 1.79-3.916 3.916 1.79 3.916 3.916 3.916zm20.587 20.364c2.126 0 3.916-1.79 3.916-3.916s-1.79-3.916-3.916-3.916c-2.125 0-3.916 1.79-3.916 3.916-.223 2.126 1.679 3.916 3.916 3.916z" stroke="#fff" stroke-width="1.097" stroke-miterlimit="10"/><defs><linearGradient id="paint0_linear" x1="2.573" y1="68.233" x2="33.153" y2="36.142" gradientUnits="userSpaceOnUse"><stop stop-color="#211087" stop-opacity=".9"/><stop offset=".109" stop-color="#270D98" stop-opacity=".911"/><stop offset=".3" stop-color="#2E09B0" stop-opacity=".93"/><stop offset=".502" stop-color="#3405C1" stop-opacity=".95"/><stop offset=".724" stop-color="#3704CB" stop-opacity=".972"/><stop offset="1" stop-color="#3803CE"/></linearGradient><linearGradient id="paint1_linear" x1="80.064" y1="50.592" x2="41.458" y2="50.592" gradientUnits="userSpaceOnUse"><stop stop-color="#FA6400"/><stop offset="1" stop-color="#FFB500" stop-opacity=".95"/></linearGradient><linearGradient id="paint2_linear" x1="20.761" y1="49.601" x2="59.363" y2="12.783" gradientUnits="userSpaceOnUse"><stop stop-color="#EBF1FF" stop-opacity=".5"/><stop offset=".494" stop-color="#DDE7FF"/></linearGradient></defs></svg>