<svg width="80" height="80" viewBox="0 0 80 80" fill="none" xmlns="http://www.w3.org/2000/svg">
<g clip-path="url(#clip0_424_21279)">
<path d="M39.9971 80C62.0882 80 79.9971 62.0911 79.9971 40C79.9971 17.9089 62.0882 0 39.9971 0C17.906 0 -0.00292969 17.9089 -0.00292969 40C-0.00292969 62.0911 17.906 80 39.9971 80Z" fill="url(#paint0_linear_424_21279)"/>
<path d="M73.7246 18.0317L72.4446 18.2857L66.0446 18.7937L64.2526 21.5873L62.9726 21.0794L57.8527 16.5079L57.0847 14.2222L56.0607 11.6825L52.7327 8.88889L48.8927 8.12698V9.90476L52.4767 13.4603L54.2687 15.4921L52.2207 16.5079L50.6847 16L48.1247 14.9841V12.9524L44.7968 11.6825L43.7728 16.254L40.4448 17.0159L40.7008 19.5556L45.0528 20.3175L46.0768 16.5079L49.6607 17.0159L51.1967 18.0317H53.7567L55.5487 21.5873L60.4127 26.4127L60.1567 28.1905L56.3167 27.9365L49.6607 31.2381L44.7968 36.8254L44.2848 39.3651H42.4928L39.1648 37.8413L36.0928 39.3651L36.8608 42.6667L38.1408 41.1429H40.4448L40.1888 44.1905L42.2368 44.6984L44.2848 46.9841L47.6128 45.9683L51.1967 46.4762L55.5487 47.4921L57.5967 47.746L61.1807 51.8095L68.0926 55.873L63.4846 64.5079L58.6207 66.7937L56.8287 71.6191L49.9167 76.1905L49.4022 78.8889C67.0661 74.5714 79.9335 58.7937 79.9335 40C80.4454 32.127 77.8205 24.381 73.7246 18.0317Z" fill="white"/>
<path d="M44.7968 60.9524L41.9808 55.6191L44.5408 50.0318L41.9808 49.2698L38.9088 46.2222L32.2529 44.6984L29.9489 40.127V42.9206H28.9249L23.0369 35.0476V28.6984L18.9409 21.8413L12.285 23.1111H7.67702L5.62903 21.5873L8.44501 19.3016L4.99309 20.5556C1.40912 26.3968 -0.00292969 32.7619 -0.00292969 40.127C-0.00292969 62.2222 17.917 80 40.1888 80C41.9808 80 43.5168 79.746 45.3088 79.746L44.7968 74.9206C44.7968 74.9206 46.5888 67.8095 46.5888 67.5556C46.5888 67.3016 44.7968 60.9524 44.7968 60.9524Z" fill="white"/>
<path d="M14.845 13.2064L22.0129 12.1905L25.3409 10.4127L28.9249 11.4286L34.8128 11.1746L37.1168 7.87302L40.1888 8.38095L47.3568 7.61905L49.4047 5.33333L52.2207 3.55556L56.0607 4.06349L57.5967 3.80952C52.4767 1.26984 46.5888 6.14891e-10 40.4448 0C26.0874 -1.43689e-09 13.8749 7.22222 8.32378 15.5556L14.845 13.2064ZM41.9808 4.31746L46.0768 2.03175L48.6367 3.55556L44.7968 6.34921L41.2128 6.60318L39.6768 5.5873L41.9808 4.31746ZM29.6929 4.57143L31.4849 5.33333L33.7888 4.57143L35.0688 6.85714L29.6929 8.38095L27.1329 6.85714C27.1329 6.60317 29.6929 5.07937 29.6929 4.57143Z" fill="white"/>
<path d="M73.7236 18.0317L72.4436 18.2857L66.0436 18.7937L64.2517 21.5873L62.9717 21.0794L57.8517 16.5079L57.0837 14.2222L56.0597 11.6825L52.7317 8.88889L48.8918 8.12698V9.90476L52.4757 13.4603L54.2677 15.4921L52.2197 16.5079L50.6838 16L48.1238 14.9841V12.9524L44.7958 11.6825L43.7718 16.254L40.4438 17.0159L40.6998 19.5556L45.0518 20.3175L46.0758 16.5079L49.6598 17.0159L51.1958 18.0317H53.7557L55.5477 21.5873L60.4117 26.4127L60.1557 28.1905L56.3157 27.9365L49.6598 31.2381L44.7958 36.8254L44.2838 39.3651H42.4918L39.1638 37.8413L36.0919 39.3651L36.8598 42.6667L38.1398 41.1429H40.4438L40.1878 44.1905L42.2358 44.6984L44.2838 46.9841L47.6118 45.9683L51.1958 46.4762L55.5477 47.4921L57.5957 47.746L61.1797 51.8095L68.0916 55.873L63.4837 64.5079L58.6197 66.7937L56.8277 71.6191L49.9158 76.1905L49.4012 78.8889C67.0651 74.5714 79.9325 58.7937 79.9325 40C80.4445 32.127 77.8196 24.381 73.7236 18.0317Z" fill="url(#paint1_linear_424_21279)"/>
<path d="M44.7958 60.9524L41.9798 55.6191L44.5398 50.0318L41.9798 49.2698L38.9078 46.2222L32.2519 44.6984L29.9479 40.127V42.9206H28.9239L23.0359 35.0476V28.6984L18.94 21.8413L12.284 23.1111H7.67604L5.62806 21.5873L8.44404 19.3016L4.99212 20.5556C1.40814 26.3968 -0.00390625 32.7619 -0.00390625 40.127C-0.00390625 62.2222 17.916 80 40.1878 80C41.9798 80 43.5158 79.746 45.3078 79.746L44.7958 74.9206C44.7958 74.9206 46.5878 67.8095 46.5878 67.5556C46.5878 67.3016 44.7958 60.9524 44.7958 60.9524Z" fill="url(#paint2_linear_424_21279)"/>
<path d="M14.844 13.2064L22.0119 12.1905L25.3399 10.4127L28.9239 11.4286L34.8119 11.1746L37.1158 7.87302L40.1878 8.38095L47.3558 7.61905L49.4038 5.33333L52.2197 3.55556L56.0597 4.06349L57.5957 3.80952C52.4757 1.26984 46.5878 6.14891e-10 40.4438 0C26.0864 -1.43689e-09 13.8739 7.22222 8.3228 15.5556L14.844 13.2064ZM41.9798 4.31746L46.0758 2.03175L48.6358 3.55556L44.7958 6.34921L41.2118 6.60318L39.6758 5.5873L41.9798 4.31746ZM29.6919 4.57143L31.4839 5.33333L33.7879 4.57143L35.0679 6.85714L29.6919 8.38095L27.1319 6.85714C27.1319 6.60317 29.6919 5.07937 29.6919 4.57143Z" fill="url(#paint3_linear_424_21279)"/>
</g>
<defs>
<linearGradient id="paint0_linear_424_21279" x1="64.375" y1="15.8027" x2="13.5672" y2="65.8405" gradientUnits="userSpaceOnUse">
<stop stop-color="#FA6400"/>
<stop offset="1" stop-color="#FFB500" stop-opacity="0.95"/>
</linearGradient>
<linearGradient id="paint1_linear_424_21279" x1="-0.00390625" y1="40.0332" x2="79.9961" y2="40.0332" gradientUnits="userSpaceOnUse">
<stop stop-color="#3002B2"/>
<stop offset="1" stop-color="#5833C0"/>
</linearGradient>
<linearGradient id="paint2_linear_424_21279" x1="-0.00390625" y1="40.0332" x2="79.9961" y2="40.0332" gradientUnits="userSpaceOnUse">
<stop stop-color="#3002B2"/>
<stop offset="1" stop-color="#5833C0"/>
</linearGradient>
<linearGradient id="paint3_linear_424_21279" x1="-0.00390625" y1="40.0332" x2="79.9961" y2="40.0332" gradientUnits="userSpaceOnUse">
<stop stop-color="#3002B2"/>
<stop offset="1" stop-color="#5833C0"/>
</linearGradient>
<clipPath id="clip0_424_21279">
<rect width="80" height="80" fill="white"/>
</clipPath>
</defs>
</svg>
