<svg width="80" height="80" fill="none" xmlns="http://www.w3.org/2000/svg"><path fill="#fff" d="M0 0h80v80H0z"/><path d="M62.808 71.35C72.303 71.35 80 63.653 80 54.158c0-9.495-7.697-17.192-17.192-17.192-9.495 0-17.192 7.697-17.192 17.192 0 9.495 7.697 17.192 17.192 17.192z" fill="url(#paint0_linear)"/><path d="M62.808 61.608a7.45 7.45 0 100-14.9 7.45 7.45 0 000 14.9z" stroke="#fff" stroke-width=".84"/><path d="M31.29 71.35c17.191 0 31.174-13.983 31.174-31.175C62.464 22.754 48.481 9 31.29 9 14.098 9 .115 22.983.115 40.175 0 57.595 13.983 71.349 31.29 71.349z" fill="url(#paint1_linear)"/><path d="M31.29 54.846c8.022 0 14.67-6.648 14.67-14.67 0-8.024-6.648-14.671-14.67-14.671-8.023 0-14.67 6.647-14.67 14.67-.116 8.023 6.647 14.67 14.67 14.67z" stroke="#fff" stroke-width=".917"/><path d="M31.29 71.35c4.126 0 8.022-.917 11.46-2.178-2.98-2.98-6.99-4.928-11.46-4.928-4.585 0-8.597 1.834-11.462 4.928 3.439 1.605 7.45 2.178 11.461 2.178z" fill="url(#paint2_linear)"/><path d="M0 40.175c0 4.126.917 8.023 2.178 11.461 2.98-2.98 4.928-6.991 4.928-11.461 0-4.585-1.834-8.596-4.928-11.461C.802 32.267 0 36.278 0 40.174z" fill="url(#paint3_linear)"/><path d="M31.29 9c-4.127 0-8.023.917-11.462 2.178 2.98 2.98 6.992 4.928 11.461 4.928 4.585 0 8.596-1.834 11.462-4.928C39.312 9.802 35.416 9 31.289 9z" fill="url(#paint4_linear)"/><path d="M62.464 40.175c0-4.126-.916-8.023-2.177-11.461-2.98 2.98-4.929 6.991-4.929 11.46 0 4.585 1.834 8.597 4.929 11.462 1.604-3.324 2.177-7.335 2.177-11.461z" fill="url(#paint5_linear)"/><path d="M23.496 37.883c.114-1.376.917-2.866 3.896-2.866 2.407 0 3.553 1.146 3.553 2.866 0 1.146-.687 1.833-1.375 1.948.688.344 1.834.688 1.834 2.407 0 1.605-1.032 3.095-4.012 3.095-2.98 0-3.896-1.834-3.896-2.98h2.865c.114.573.344 1.031 1.146 1.031.688 0 1.031-.458 1.031-1.375 0-.688-.343-1.376-1.375-1.376h-.688V38.8h.688c.917 0 1.146-.344 1.146-1.032 0-.573-.344-.917-.917-.917-.573 0-.916.344-.916 1.032h-2.98z" fill="url(#paint6_linear)"/><path d="M35.3 42.582c.115.458.344.687.918.687.916 0 1.031-1.146 1.146-2.406-.459.458-1.146.687-1.834.687-1.949 0-3.324-1.375-3.324-3.094 0-2.063 1.49-3.439 3.897-3.439 2.98 0 4.011 2.063 4.011 4.7 0 2.865-.917 5.386-4.126 5.386-2.636 0-3.553-1.49-3.667-2.865h2.98v.344zm0-4.24c0 .916.344 1.375 1.032 1.375.688 0 1.032-.459 1.032-1.376 0-.688-.344-1.375-1.032-1.375-.573.114-1.031.458-1.031 1.375z" fill="url(#paint7_linear)"/><defs><linearGradient id="paint0_linear" x1="45.661" y1="54.187" x2="80.019" y2="54.187" gradientUnits="userSpaceOnUse"><stop stop-color="#FA6400"/><stop offset="1" stop-color="#FFB500" stop-opacity=".95"/></linearGradient><linearGradient id="paint1_linear" x1=".038" y1="40.155" x2="62.459" y2="40.155" gradientUnits="userSpaceOnUse"><stop stop-color="#211087" stop-opacity=".9"/><stop offset=".109" stop-color="#270D98" stop-opacity=".911"/><stop offset=".3" stop-color="#2E09B0" stop-opacity=".93"/><stop offset=".502" stop-color="#3405C1" stop-opacity=".95"/><stop offset=".724" stop-color="#3704CB" stop-opacity=".972"/><stop offset="1" stop-color="#3803CE"/></linearGradient><linearGradient id="paint2_linear" x1="19.828" y1="71.35" x2="24.011" y2="58.481" gradientUnits="userSpaceOnUse"><stop stop-color="#EBF1FF" stop-opacity=".5"/><stop offset=".494" stop-color="#DDE7FF"/></linearGradient><linearGradient id="paint3_linear" x1="0" y1="51.636" x2="12.48" y2="47.946" gradientUnits="userSpaceOnUse"><stop stop-color="#EBF1FF" stop-opacity=".5"/><stop offset=".494" stop-color="#DDE7FF"/></linearGradient><linearGradient id="paint4_linear" x1="19.828" y1="16.106" x2="24.011" y2="3.237" gradientUnits="userSpaceOnUse"><stop stop-color="#EBF1FF" stop-opacity=".5"/><stop offset=".494" stop-color="#DDE7FF"/></linearGradient><linearGradient id="paint5_linear" x1="55.358" y1="51.636" x2="67.838" y2="47.946" gradientUnits="userSpaceOnUse"><stop stop-color="#EBF1FF" stop-opacity=".5"/><stop offset=".494" stop-color="#DDE7FF"/></linearGradient><linearGradient id="paint6_linear" x1="5.391" y1="62.272" x2="57.163" y2="10.499" gradientUnits="userSpaceOnUse"><stop stop-color="#fff"/><stop offset="1" stop-color="#F2F7FF"/></linearGradient><linearGradient id="paint7_linear" x1="9.654" y1="66.534" x2="61.426" y2="14.762" gradientUnits="userSpaceOnUse"><stop stop-color="#fff"/><stop offset="1" stop-color="#F2F7FF"/></linearGradient></defs></svg>