<svg width="137" height="33" fill="none" xmlns="http://www.w3.org/2000/svg"><path fill-rule="evenodd" clip-rule="evenodd" d="M13.08 10.256c0-1.176.925-2.11 2.092-2.11a2.067 2.067 0 011.449 3.53 2.031 2.031 0 01-1.449.609 2.059 2.059 0 01-1.448-.609c-.443-.365-.644-.851-.644-1.42zM18.311 15.532c0-.569.201-1.096.604-1.502a2.057 2.057 0 011.488-.608c1.127 0 2.053.932 2.053 2.069 0 .568-.201 1.096-.604 1.46a2.031 2.031 0 01-1.449.61 2.062 2.062 0 01-1.448-.61c-.443-.364-.644-.851-.644-1.42zM10.142 13.219a2.086 2.086 0 00-2.093 2.11c0 .568.241 1.095.603 1.46.403.406.926.61 1.45.61.563 0 1.086-.245 1.448-.61a2.068 2.068 0 000-2.921c-.362-.447-.885-.65-1.408-.65zM15.373 18.494a2.06 2.06 0 00-1.489.608 2.096 2.096 0 00-.604 1.502c0 1.136.926 2.07 2.053 2.07.564 0 1.087-.204 1.449-.609a2.07 2.07 0 000-2.922c-.362-.406-.845-.65-1.409-.65z" fill="#F55800"/><path fill-rule="evenodd" clip-rule="evenodd" d="M15.252.03a3.51 3.51 0 00-2.535 1.055L1.047 12.854A3.575 3.575 0 000 15.41c0 .974.363 1.867 1.046 2.556l4.709 4.748 2.254-2.273-5.03-5.03.764-.732 11.51-11.606L29.74 17.682l.08-.081c.443-.609.725-1.38.725-2.15 0-.974-.362-1.867-1.046-2.557L17.829 1.085C17.103.395 16.218.03 15.251.03z" fill="#F55800"/><path fill-rule="evenodd" clip-rule="evenodd" d="M10.261 22.755l-2.253 2.272 4.749 4.788a3.622 3.622 0 002.495 1.015 3.51 3.51 0 002.535-1.055l9.698-9.78-2.253-2.273-9.98 10.065-4.99-5.032zM97.056 12.606c0 1.501-.926 2.313-2.576 2.313-1.69 0-2.576-.812-2.576-2.313V9.97c0-1.584.886-2.395 2.576-2.395s2.576.811 2.576 2.395v2.637zM94.48 5.342c-3.099 0-5.11 1.826-5.11 4.586v2.637c0 2.8 1.971 4.504 5.11 4.504 3.139 0 5.11-1.744 5.11-4.504V9.928c-.04-2.76-2.012-4.586-5.11-4.586zM103.133 13.742c-.927 0-1.57.65-1.57 1.623 0 .933.643 1.583 1.57 1.583.925 0 1.609-.65 1.609-1.582 0-.934-.684-1.624-1.609-1.624zM114.159 12.606c0 1.501-.926 2.313-2.576 2.313-1.69 0-2.575-.812-2.575-2.313V9.97c0-1.584.885-2.395 2.575-2.395 1.691 0 2.576.811 2.576 2.395v2.637zm-2.576-7.264c-3.098 0-5.11 1.826-5.11 4.586v2.637c0 2.8 1.972 4.504 5.11 4.504 3.14 0 5.111-1.744 5.111-4.504V9.928c-.04-2.8-2.052-4.586-5.111-4.586zM133.758 13.742c-.443.365-1.369.608-2.335.608-1.69 0-2.576-.851-2.576-2.475V10.13c0-1.785.846-2.556 2.697-2.556.684 0 1.65.08 2.133.244h.04v5.924h.041zm2.454-7.466c-1.368-.569-3.138-.934-4.668-.934-1.931 0-5.151.609-5.151 4.788v1.745c0 2.232 1.248 4.626 4.829 4.626.724 0 1.811-.122 2.737-.65h.04v.041c0 .447-.161 1.908-1.288 2.598-1.046.69-2.536.568-4.467-.365l-1.046 1.988c1.609 1.095 4.467 1.542 6.519.486 1.208-.649 2.013-1.785 2.334-3.286v-.041c.121-.486.161-1.055.161-1.663V6.276zM125.065 7.574v-2.15c-1.65-.285-4.467 0-6.359.973v10.429h2.496V8.02c1.046-.406 3.139-.528 3.863-.447zM84.62 16.786h2.496v-6.453c0-3.287-1.811-5.032-5.192-5.032-1.53 0-3.3.366-4.708.934v10.55h2.494V7.778h.04c.524-.162 1.329-.243 2.174-.243 2.294 0 2.697 1.704 2.697 2.84v6.412zM72.064 16.786h2.496v-11.2h-2.496v11.2zM73.352 1c-.885 0-1.529.65-1.529 1.502s.685 1.541 1.53 1.541c.885 0 1.488-.649 1.488-1.541 0-.893-.603-1.502-1.489-1.502zM70.133 13.54c0-2.395-1.932-2.964-3.904-3.369-1.368-.284-2.414-.487-2.414-1.502 0-.811.764-1.298 2.012-1.298.845 0 1.892.284 2.777.77l.965-1.866c-1.207-.649-2.454-.973-3.621-.973-2.053 0-4.427.892-4.427 3.408 0 2.84 3.179 3.409 4.225 3.571 1.047.203 2.053.447 2.053 1.38 0 .852-.805 1.34-2.053 1.34-1.087 0-2.334-.447-3.3-1.138l-.965 1.908c1.247.893 2.696 1.38 4.225 1.38 2.737-.041 4.427-1.421 4.427-3.612zM57.094 14.676h-.04c-.564.162-1.45.284-2.133.284-1.53 0-2.414-.569-2.414-1.583 0-1.056.764-1.583 2.374-1.583.684 0 1.569.08 2.132.203h.081v2.679zm1.932-7.224c-.322-.65-.805-1.136-1.409-1.501-2.213-1.299-5.473-.568-6.64.04l.644 1.948c.08-.04.201-.08.282-.122.16-.04.322-.122.483-.162.2-.04.442-.122.643-.162l.725-.122c.241-.04.523-.04.764-.04.242 0 .524.04.765.08.161.041.322.082.483.163.16.04.282.121.403.203.12.081.241.203.322.325.12.121.2.243.281.365.12.243.201.487.241.73.04.203.04.406.04.568v.204h-.08c-.684-.082-1.449-.163-2.173-.163-3.018 0-4.748 1.298-4.748 3.571 0 1.38.643 3.733 4.829 3.733 1.046 0 2.656-.122 4.507-.811.04 0 .08-.041.08-.041V9.806c0-.447-.04-.852-.12-1.258a4.352 4.352 0 00-.363-1.015c.04-.04.04-.04.04-.08zM39.669 3.07c-1.208 1.014-1.852 2.515-1.852 4.342v3.936c0 1.825.644 3.327 1.852 4.342 1.086.892 2.615 1.42 4.306 1.42 1.57 0 3.099-.405 4.386-1.258l-1.086-2.15c-.242.12-2.576 1.38-4.588.81-1.449-.405-2.253-1.54-2.253-3.164V7.452c0-1.623.804-2.76 2.253-3.165 2.012-.568 4.306.609 4.588.812l1.046-2.192c-1.328-.852-2.776-1.217-4.346-1.217-1.69 0-3.22.487-4.306 1.38z" fill="#21225B"/><path d="M42.96 31.14c-1.127 0-1.988-.313-2.58-.94-.588-.627-.88-1.517-.88-2.67 0-.573.09-1.083.27-1.53.18-.453.426-.833.74-1.14a3.06 3.06 0 011.12-.71 4.04 4.04 0 011.41-.24c.293 0 .56.023.8.07.24.04.45.09.63.15a2.793 2.793 0 01.71.31l-.45 1.26a3.752 3.752 0 00-.75-.29 3.5 3.5 0 00-.96-.12c-.24 0-.478.04-.71.12-.227.08-.43.21-.61.39-.174.173-.314.4-.42.68-.108.28-.16.62-.16 1.02 0 .32.033.62.1.9.072.273.186.51.34.71.16.2.366.36.62.48.252.113.56.17.92.17.226 0 .43-.013.61-.04.18-.027.34-.057.48-.09.14-.04.263-.083.37-.13l.29-.13.43 1.25c-.22.133-.53.253-.93.36-.4.107-.864.16-1.39.16zM52.207 31c-.074-.24-.157-.487-.25-.74l-.26-.76h-2.7a33.84 33.84 0 01-.27.76c-.087.253-.167.5-.24.74h-1.62c.26-.747.506-1.437.74-2.07.233-.633.46-1.23.68-1.79.226-.56.446-1.09.66-1.59.22-.507.446-1 .68-1.48h1.49a51.401 51.401 0 011.33 3.07c.226.56.456 1.157.69 1.79.233.633.48 1.323.74 2.07h-1.67zm-1.87-5.36c-.034.1-.084.237-.15.41l-.23.6-.29.75c-.1.273-.204.56-.31.86h1.97c-.107-.3-.21-.587-.31-.86s-.197-.523-.29-.75a257.451 257.451 0 00-.39-1.01zM57.85 29.81c.22 0 .4-.017.54-.05.146-.04.263-.09.35-.15a.532.532 0 00.18-.23.8.8 0 00.05-.29c0-.227-.107-.413-.32-.56-.214-.153-.58-.317-1.1-.49a9.621 9.621 0 01-.68-.27 2.726 2.726 0 01-.61-.39 1.95 1.95 0 01-.44-.57c-.114-.227-.17-.5-.17-.82 0-.32.06-.607.18-.86.12-.26.29-.48.51-.66.22-.18.486-.317.8-.41.313-.1.666-.15 1.06-.15.466 0 .87.05 1.21.15.34.1.62.21.84.33l-.45 1.23a3.88 3.88 0 00-.65-.26 2.637 2.637 0 00-.85-.12c-.374 0-.644.053-.81.16-.16.1-.24.257-.24.47 0 .127.03.233.09.32a.96.96 0 00.25.24c.113.067.24.13.38.19.146.053.306.11.48.17.36.133.673.267.94.4.266.127.486.277.66.45.18.173.313.377.4.61.086.233.13.517.13.85 0 .647-.227 1.15-.68 1.51-.454.353-1.137.53-2.05.53-.307 0-.584-.02-.83-.06a5.035 5.035 0 01-.66-.13 4.14 4.14 0 01-.49-.17 4.043 4.043 0 01-.34-.17l.44-1.24c.206.113.46.217.76.31.306.087.68.13 1.12.13zM62.78 24.07h1.56V31h-1.56v-6.93zM71.594 31a34.886 34.886 0 00-1.45-2.35 23.886 23.886 0 00-1.66-2.19V31h-1.54v-6.93h1.27c.22.22.463.49.73.81.266.32.536.663.81 1.03.28.36.556.737.83 1.13.273.387.53.76.77 1.12v-4.09h1.55V31h-1.31zM76.812 27.53c0 .34.04.647.12.92.087.273.207.51.36.71.16.193.354.343.58.45.227.107.487.16.78.16.287 0 .544-.053.77-.16.234-.107.427-.257.58-.45.16-.2.28-.437.36-.71.087-.273.13-.58.13-.92 0-.34-.043-.647-.13-.92-.08-.28-.2-.517-.36-.71a1.51 1.51 0 00-.58-.46 1.787 1.787 0 00-.77-.16c-.293 0-.553.057-.78.17-.226.107-.42.26-.58.46-.153.193-.273.43-.36.71-.08.273-.12.577-.12.91zm5.29 0c0 .593-.09 1.117-.27 1.57a3.22 3.22 0 01-.72 1.13c-.306.3-.673.527-1.1.68-.42.153-.873.23-1.36.23-.473 0-.92-.077-1.34-.23a3.116 3.116 0 01-1.1-.68 3.265 3.265 0 01-.74-1.13c-.18-.453-.27-.977-.27-1.57 0-.593.094-1.113.28-1.56.187-.453.437-.833.75-1.14.32-.307.687-.537 1.1-.69.42-.153.86-.23 1.32-.23.474 0 .92.077 1.34.23.42.153.787.383 1.1.69.314.307.56.687.74 1.14.18.447.27.967.27 1.56zM89.645 24.07c.12.22.257.493.41.82.16.32.323.67.49 1.05.173.373.343.757.51 1.15l.47 1.11.47-1.11c.167-.393.333-.777.5-1.15.173-.38.337-.73.49-1.05.16-.327.3-.6.42-.82h1.42c.067.46.127.977.18 1.55.06.567.11 1.16.15 1.78.047.613.087 1.23.12 1.85.04.62.073 1.203.1 1.75h-1.52c-.02-.673-.047-1.407-.08-2.2a59.314 59.314 0 00-.15-2.4 415.213 415.213 0 01-.84 1.95 89.185 89.185 0 01-.75 1.77h-1.09a95.68 95.68 0 00-.34-.79c-.133-.313-.273-.64-.42-.98-.14-.34-.283-.68-.43-1.02l-.4-.93a59.68 59.68 0 00-.15 2.4c-.033.793-.06 1.527-.08 2.2h-1.52c.027-.547.057-1.13.09-1.75l.12-1.85c.047-.62.097-1.213.15-1.78.06-.573.123-1.09.19-1.55h1.49zM102.42 31c-.074-.24-.157-.487-.25-.74l-.26-.76h-2.7a33.84 33.84 0 01-.27.76c-.087.253-.167.5-.24.74h-1.62c.26-.747.506-1.437.74-2.07.233-.633.46-1.23.68-1.79.226-.56.446-1.09.66-1.59.22-.507.446-1 .68-1.48h1.49a53.39 53.39 0 011.33 3.07c.226.56.456 1.157.69 1.79.233.633.48 1.323.74 2.07h-1.67zm-1.87-5.36c-.034.1-.084.237-.15.41l-.23.6-.29.75c-.1.273-.204.56-.31.86h1.97c-.107-.3-.21-.587-.31-.86s-.197-.523-.29-.75l-.23-.6-.16-.41zM110.306 24.07v1.33h-2.09V31h-1.56v-5.6h-2.09v-1.33h5.74zM115.235 31.14c-1.127 0-1.987-.313-2.58-.94-.587-.627-.88-1.517-.88-2.67 0-.573.09-1.083.27-1.53.18-.453.426-.833.74-1.14.313-.313.686-.55 1.12-.71.433-.16.903-.24 1.41-.24.293 0 .56.023.8.07.24.04.45.09.63.15a2.793 2.793 0 01.71.31l-.45 1.26a3.78 3.78 0 00-.75-.29 3.5 3.5 0 00-.96-.12c-.24 0-.477.04-.71.12-.227.08-.43.21-.61.39-.174.173-.314.4-.42.68-.107.28-.16.62-.16 1.02 0 .32.033.62.1.9.073.273.186.51.34.71.16.2.366.36.62.48.253.113.56.17.92.17.226 0 .43-.013.61-.04.18-.027.34-.057.48-.09.14-.04.263-.083.37-.13l.29-.13.43 1.25c-.22.133-.53.253-.93.36-.4.107-.864.16-1.39.16zM123.739 24.07h1.56V31h-1.56v-2.94h-2.62V31h-1.56v-6.93h1.56v2.65h2.62v-2.65z" fill="#21225B"/></svg>