<svg xmlns="http://www.w3.org/2000/svg" width="282.2" height="63.7"><path fill="#FB8936" d="M27.3 21.1a4.3 4.3 0 0 1 4.3-4.3c1.2 0 2.3.5 3 1.3a4.3 4.3 0 0 1 1.3 3 4.3 4.3 0 0 1-1.3 3.1c-.8.8-1.9 1.3-3 1.3a4.3 4.3 0 0 1-3-1.3 4.3 4.3 0 0 1-1.3-3zm11 11a4.3 4.3 0 0 1 4.3-4.4c2.3 0 4.3 2 4.3 4.3a4.3 4.3 0 0 1-1.3 3.1c-.9.8-2 1.3-3 1.3a4.3 4.3 0 0 1-3.1-1.3 4.2 4.2 0 0 1-1.3-3zM21 27.3a4.3 4.3 0 0 0-4.3 4.3c0 1.2.5 2.3 1.3 3a4.3 4.3 0 0 0 3 1.3c1.2 0 2.3-.4 3.1-1.3.8-.8 1.3-1.9 1.3-3a4.3 4.3 0 0 0-4.4-4.3zm11 11a4.3 4.3 0 0 0-4.4 4.3c0 2.3 2 4.3 4.3 4.3a4.3 4.3 0 0 0 4.4-4.4 4.3 4.3 0 0 0-1.3-3 4.2 4.2 0 0 0-3-1.3z"/><path fill="#FB8936" d="M31.8 0c-2 0-3.9.8-5.3 2.2L2.2 26.5A7.5 7.5 0 0 0 0 31.8c0 2 .8 4 2.2 5.3L12 47l4.7-4.6L6.2 31.8l1.6-1.5 24-24 30.1 30 .2.2v-.2a7.5 7.5 0 0 0 1.6-4.5c0-2-.8-3.8-2.2-5.2L37.1 2.2A7.5 7.5 0 0 0 31.8 0z"/><path fill="#FFF" d="m21.4 47-4.7 4.6 10 10a7.5 7.5 0 0 0 5.1 2c2 0 4-.7 5.3-2.1l20.3-20.3-4.7-4.7-20.9 20.9L21.4 47zm129.7-31.2a3 3 0 0 0-3.1 3c0 1.9 1.4 3.3 3.1 3.3a3 3 0 0 0 3.2-3.2c0-1.9-1.3-3.1-3.2-3.1zm44.1 9c-6.4 0-10.6 3.7-10.6 9.5v5.5c0 5.7 4 9.3 10.6 9.3s10.6-3.6 10.6-9.3v-5.5c0-5.8-4.1-9.5-10.6-9.5zm5.4 15c0 3-1.9 4.7-5.4 4.7s-5.4-1.7-5.4-4.8v-5.4c0-3.2 1.9-5 5.4-5s5.4 1.8 5.4 5v5.5zm12.7 2.4c-2 0-3.3 1.3-3.3 3.3 0 2 1.3 3.3 3.3 3.3 2 0 3.3-1.4 3.3-3.3 0-2-1.4-3.3-3.3-3.3zm17.5-17.5c-6.4 0-10.6 3.8-10.6 9.6v5.5c0 5.7 4 9.3 10.7 9.3 6.5 0 10.6-3.6 10.6-9.3v-5.5c0-5.8-4.2-9.6-10.7-9.6zm5.5 15c0 3.1-2 4.8-5.5 4.8s-5.4-1.7-5.4-4.8v-5.4c0-3.3 2-5 5.4-5s5.5 1.7 5.5 5v5.4z"/><g fill="#FFF"><path d="M270 57.5zm7.8-1.6h-.1.1zM282.2 26.7a26.8 26.8 0 0 0-9.7-2c-4 0-10.7 1.4-10.7 10v3.6c0 4.6 2.6 9.5 10 9.5a12 12 0 0 0 5.7-1.3c.1 1-.3 4-2.6 5.5-2.1 1.4-5.2 1.1-9.3-.8l-2.2 4.1c3.3 2.3 9.3 3.3 13.6 1a9.6 9.6 0 0 0 4.9-6.8v-.1c.2-1 .3-2.2.3-3.4V26.7zm-5 15.4c-1 .8-2.8 1.3-4.9 1.3-3.5 0-5.3-1.8-5.3-5.1v-3.6c0-3.7 1.7-5.3 5.6-5.3 1.4 0 3.4.1 4.5.5v12.2zM264.5 56zm14.5-1z"/></g><path fill="#FFF" d="M259 29.4V25c-3.5-.6-9.3 0-13.2 2v21.6h5.1V30.3a22 22 0 0 1 8.1-1zm-84.4 19h5.2V35.2c0-6.8-3.8-10.4-10.8-10.4-3.2 0-6.9.8-9.8 2v21.8h5.2V29.9c1.1-.4 2.9-.6 4.6-.6 4.7 0 5.6 3.5 5.6 5.9v13.3zm-26.1-23.1h5.2v23.2h-5.2zm-4 16.4c0-5-4-6.2-8.2-7-2.8-.6-5-1-5-3 0-1.7 1.5-2.7 4.1-2.7 1.8 0 4 .6 5.8 1.5l2-3.9c-2.5-1.3-5.1-2-7.5-2-4.3 0-9.3 1.8-9.3 7 0 5.9 6.7 7 8.9 7.4 2.1.4 4.2 1 4.2 2.9 0 1.7-1.6 2.8-4.3 2.8a12 12 0 0 1-6.8-2.4l-2 4a15 15 0 0 0 8.8 2.8c5.7 0 9.2-2.9 9.2-7.4z"/><g fill="#FFF"><path d="m121.8 30.6-.2-.8.2.8zm-.7-1.8-.5-.7.5.7zM121.3 29.2a7.7 7.7 0 0 0-3-3.2c-4.6-2.7-11.4-1.2-13.9.1l1.4 4c.8-.4 5.7-2 8.9-.5l.4.1.4.3.1.1.7.6c.6.9 1 2 1 3.4v.4h-.2c-1.4-.3-3-.5-4.6-.5-6.3 0-9.9 2.7-9.9 7.4 0 2.9 1.3 7.7 10.1 7.7 2.2 0 5.6-.3 9.4-1.7h.2V34c0-1 0-1.8-.2-2.6s-.4-1.5-.8-2.1v-.1zm-4 14.9h-.1c-1.2.3-3 .6-4.5.6-3.2 0-5-1.2-5-3.3 0-2.2 1.6-3.3 5-3.3 1.4 0 3.3.2 4.5.4V44zM117.8 25.7l-.3-.1.3.1zm2.7 22.3.5-.2-.5.2zm-1-21.1-.8-.6.8.6zm2.7 5.5v-.5.5z"/></g><path fill="#FFF" d="M81 20c-2.6 2.2-3.9 5.3-3.9 9v8.2c0 3.8 1.3 7 3.9 9a14 14 0 0 0 9 2.9c3.2 0 6.4-.8 9.1-2.6L96.8 42c-.5.2-5.3 2.8-9.6 1.6-3-.8-4.7-3.2-4.7-6.5v-8c0-3.4 1.7-5.8 4.7-6.6 4.2-1.2 9 1.3 9.6 1.6l2.2-4.5a16.3 16.3 0 0 0-9-2.5c-3.6 0-6.8 1-9 2.9zM88.4 44zm1.2 0z"/></svg>
