<svg width="80" height="80" viewBox="0 0 80 80" fill="none" xmlns="http://www.w3.org/2000/svg">
<path d="M76.9919 32H37.0081C36.6141 31.999 36.2238 32.0669 35.8594 32.1997C35.495 32.3325 35.1636 32.5278 34.8843 32.7743C34.6049 33.0207 34.3831 33.3136 34.2313 33.6362C34.0796 33.9588 34.001 34.3047 34 34.6542V62.4109C34.0011 62.7604 34.0799 63.1062 34.2316 63.4286C34.3834 63.7511 34.6053 64.0439 34.8847 64.2902C35.164 64.5366 35.4953 64.7318 35.8596 64.8646C36.224 64.9973 36.6142 65.0652 37.0081 65.0642H62.0164L66.6482 71.3694C66.7916 71.5632 66.9871 71.7222 67.217 71.8323C67.4469 71.9424 67.7041 72 67.9653 72C68.2266 72 68.4837 71.9424 68.7137 71.8323C68.9436 71.7222 69.139 71.5632 69.2825 71.3694L73.9142 65.0642H76.9919C77.7872 65.0662 78.5509 64.788 79.115 64.2906C79.6791 63.7932 79.9974 63.1175 80 62.4119V34.6542C79.9989 34.3048 79.9201 33.9589 79.7684 33.6365C79.6166 33.314 79.3947 33.0213 79.1153 32.7749C78.836 32.5285 78.5047 32.3334 78.1404 32.2006C77.776 32.0678 77.3858 32 76.9919 32.001V32Z" fill="url(#paint0_linear_430_4898)"/>
<path d="M56 11.7143V50.5753C56 52.6268 54.3599 54.2897 52.3379 54.2897H21.8945L16.2551 63.1149C15.5015 64.295 13.8004 64.295 13.0489 63.1149L7.40851 54.2897H3.66211C1.63911 54.2897 0 52.6268 0 50.5753V11.7143C0 9.6629 1.63911 8 3.66211 8H52.3379C54.3599 8 56 9.6629 56 11.7143Z" fill="#D6E2FF"/>
<path d="M8 25C8 24.4696 8.21071 23.9609 8.58579 23.5858C8.96086 23.2107 9.46957 23 10 23H46C46.5304 23 47.0391 23.2107 47.4142 23.5858C47.7893 23.9609 48 24.4696 48 25C48 25.5304 47.7893 26.0391 47.4142 26.4142C47.0391 26.7893 46.5304 27 46 27H10C9.46957 27 8.96086 26.7893 8.58579 26.4142C8.21071 26.0391 8 25.5304 8 25Z" fill="url(#paint1_linear_430_4898)"/>
<path d="M8 32C8 31.4696 8.21071 30.9609 8.58579 30.5858C8.96086 30.2107 9.46957 30 10 30H46C46.5304 30 47.0391 30.2107 47.4142 30.5858C47.7893 30.9609 48 31.4696 48 32C48 32.5304 47.7893 33.0391 47.4142 33.4142C47.0391 33.7893 46.5304 34 46 34H10C9.46957 34 8.96086 33.7893 8.58579 33.4142C8.21071 33.0391 8 32.5304 8 32Z" fill="url(#paint2_linear_430_4898)"/>
<path d="M8 39C8 38.4696 8.21071 37.9609 8.58579 37.5858C8.96086 37.2107 9.46957 37 10 37H46C46.5304 37 47.0391 37.2107 47.4142 37.5858C47.7893 37.9609 48 38.4696 48 39C48 39.5304 47.7893 40.0391 47.4142 40.4142C47.0391 40.7893 46.5304 41 46 41H10C9.46957 41 8.96086 40.7893 8.58579 40.4142C8.21071 40.0391 8 39.5304 8 39Z" fill="url(#paint3_linear_430_4898)"/>
<defs>
<linearGradient id="paint0_linear_430_4898" x1="34" y1="52.0166" x2="80" y2="52.0166" gradientUnits="userSpaceOnUse">
<stop stop-color="#3002B2"/>
<stop offset="1" stop-color="#5833C0"/>
</linearGradient>
<linearGradient id="paint1_linear_430_4898" x1="40.189" y1="23.7901" x2="39.6783" y2="28.8197" gradientUnits="userSpaceOnUse">
<stop stop-color="#FA6400"/>
<stop offset="1" stop-color="#FFB500" stop-opacity="0.95"/>
</linearGradient>
<linearGradient id="paint2_linear_430_4898" x1="40.189" y1="30.7901" x2="39.6783" y2="35.8197" gradientUnits="userSpaceOnUse">
<stop stop-color="#FA6400"/>
<stop offset="1" stop-color="#FFB500" stop-opacity="0.95"/>
</linearGradient>
<linearGradient id="paint3_linear_430_4898" x1="40.189" y1="37.7901" x2="39.6783" y2="42.8197" gradientUnits="userSpaceOnUse">
<stop stop-color="#FA6400"/>
<stop offset="1" stop-color="#FFB500" stop-opacity="0.95"/>
</linearGradient>
</defs>
</svg>
