<svg width="80" height="80" fill="none" xmlns="http://www.w3.org/2000/svg"><path d="M58.03 27.782L42.826 12.156c-1.428-1.512-3.78-1.512-5.04-.168L21.738 27.53 1.155 47.524c-1.512 1.512-1.512 3.78-.168 5.293l15.29 15.71c1.428 1.512 3.78 1.512 5.04.168l20.75-20.163L58.03 33.075c1.428-1.513 1.428-3.78 0-5.293z" fill="url(#paint0_linear)"/><path d="M29.047 32.99c1.68 0 2.94-1.26 2.94-2.94s-1.26-2.94-2.94-2.94-2.94 1.26-2.94 2.94c0 1.512 1.26 2.772 2.94 2.94zm10.502-10.248c1.68 0 2.94-1.26 2.94-2.94s-1.26-2.94-2.94-2.94-2.94 1.26-2.94 2.94c0 1.596 1.26 2.94 2.94 2.94z" stroke="#fff" stroke-width="1.08"/><path d="M36.944 68.778l-15.29-15.625c-1.428-1.512-1.428-3.78.169-5.04l18.314-17.895 20.33 21.003-18.314 17.81c-1.596 1.26-3.865 1.26-5.209-.253z" fill="url(#paint1_linear)"/><path d="M63.66 12.576l15.29 15.71c1.427 1.512 1.427 3.78-.169 5.04L60.467 51.138 40.221 30.302l18.23-17.641c1.428-1.68 3.696-1.68 5.208-.085z" fill="url(#paint2_linear)"/><path d="M60.467 51.052L40.221 30.218" stroke="#D9EAFF" stroke-width="1.04" stroke-miterlimit="10"/><path d="M60.551 44.416c1.68 0 2.94-1.26 2.94-2.94s-1.26-2.94-2.94-2.94-2.94 1.26-2.94 2.94c0 1.596 1.26 2.856 2.94 2.94z" fill="url(#paint3_linear)"/><path d="M71.64 33.495c1.68 0 2.94-1.26 2.94-2.94s-1.26-2.941-2.94-2.941-2.94 1.26-2.94 2.94 1.26 2.94 2.94 2.94z" fill="url(#paint4_linear)"/><path d="M60.887 22.49c1.68 0 2.94-1.261 2.94-2.941s-1.26-2.94-2.94-2.94-2.94 1.26-2.94 2.94 1.26 2.94 2.94 2.94z" fill="url(#paint5_linear)"/><path d="M49.798 33.243c1.68 0 2.94-1.26 2.94-2.94s-1.26-2.94-2.94-2.94-2.94 1.26-2.94 2.94c0 1.512 1.26 2.94 2.94 2.94z" fill="url(#paint6_linear)"/><path d="M39.716 53.657c1.68 0 2.94-1.26 2.94-2.94s-1.26-2.94-2.94-2.94-2.94 1.26-2.94 2.94c0 1.596 1.26 2.94 2.94 2.94z" fill="url(#paint7_linear)"/><path d="M50.638 53.825c1.68 0 2.94-1.26 2.94-2.94s-1.26-2.94-2.94-2.94-2.94 1.26-2.94 2.94 1.26 2.94 2.94 2.94z" fill="url(#paint8_linear)"/><path d="M28.627 53.573c1.68 0 2.94-1.26 2.94-2.94 0-1.681-1.26-2.941-2.94-2.941s-2.94 1.26-2.94 2.94c.168 1.512 1.428 2.94 2.94 2.94z" fill="url(#paint9_linear)"/><path d="M8.8 53.153c1.68 0 2.941-1.26 2.941-2.94s-1.26-2.941-2.94-2.941-2.94 1.26-2.94 2.94 1.26 2.94 2.94 2.94zm10.082-10.082c1.68 0 2.94-1.26 2.94-2.94s-1.26-2.94-2.94-2.94-2.94 1.26-2.94 2.94c0 1.512 1.428 2.94 2.94 2.94z" stroke="#fff" stroke-width="1.08"/><path d="M39.885 42.736c1.68 0 2.94-1.26 2.94-2.94s-1.26-2.94-2.94-2.94-2.94 1.26-2.94 2.94 1.343 2.94 2.94 2.94z" fill="url(#paint10_linear)"/><path d="M39.549 64.747c1.68 0 2.94-1.26 2.94-2.94s-1.26-2.941-2.94-2.941-2.94 1.26-2.94 2.94c0 1.513 1.26 2.94 2.94 2.94z" fill="url(#paint11_linear)"/><path d="M15.69 60.378c0 1.68 1.26 2.94 2.94 2.94s2.94-1.26 2.94-2.94-1.26-2.94-2.94-2.94a2.922 2.922 0 00-2.94 2.94z" stroke="#fff" stroke-width="1.08"/><defs><linearGradient id="paint0_linear" x1="91.99" y1="-22.234" x2="-4.578" y2="74.334" gradientUnits="userSpaceOnUse"><stop stop-color="#211087" stop-opacity=".9"/><stop offset=".109" stop-color="#270D98" stop-opacity=".911"/><stop offset=".3" stop-color="#2E09B0" stop-opacity=".93"/><stop offset=".502" stop-color="#3405C1" stop-opacity=".95"/><stop offset=".724" stop-color="#3704CB" stop-opacity=".972"/><stop offset="1" stop-color="#3803CE"/></linearGradient><linearGradient id="paint1_linear" x1="23.523" y1="64.83" x2="47.38" y2="39.547" gradientUnits="userSpaceOnUse"><stop stop-color="#EBF1FF" stop-opacity=".5"/><stop offset=".494" stop-color="#DDE7FF"/></linearGradient><linearGradient id="paint2_linear" x1="82.75" y1="27.866" x2="60.506" y2="51.406" gradientUnits="userSpaceOnUse"><stop stop-color="#EBF1FF"/><stop offset="1" stop-color="#DDE7FF"/></linearGradient><linearGradient id="paint3_linear" x1="45.025" y1="41.77" x2="82.835" y2="41.133" gradientUnits="userSpaceOnUse"><stop stop-color="#211087" stop-opacity=".9"/><stop offset=".109" stop-color="#270D98" stop-opacity=".911"/><stop offset=".3" stop-color="#2E09B0" stop-opacity=".93"/><stop offset=".502" stop-color="#3405C1" stop-opacity=".95"/><stop offset=".724" stop-color="#3704CB" stop-opacity=".972"/><stop offset="1" stop-color="#3803CE"/></linearGradient><linearGradient id="paint4_linear" x1="44.842" y1="31.044" x2="82.653" y2="30.407" gradientUnits="userSpaceOnUse"><stop stop-color="#211087" stop-opacity=".9"/><stop offset=".109" stop-color="#270D98" stop-opacity=".911"/><stop offset=".3" stop-color="#2E09B0" stop-opacity=".93"/><stop offset=".502" stop-color="#3405C1" stop-opacity=".95"/><stop offset=".724" stop-color="#3704CB" stop-opacity=".972"/><stop offset="1" stop-color="#3803CE"/></linearGradient><linearGradient id="paint5_linear" x1="44.654" y1="19.812" x2="82.464" y2="19.177" gradientUnits="userSpaceOnUse"><stop stop-color="#211087" stop-opacity=".9"/><stop offset=".109" stop-color="#270D98" stop-opacity=".911"/><stop offset=".3" stop-color="#2E09B0" stop-opacity=".93"/><stop offset=".502" stop-color="#3405C1" stop-opacity=".95"/><stop offset=".724" stop-color="#3704CB" stop-opacity=".972"/><stop offset="1" stop-color="#3803CE"/></linearGradient><linearGradient id="paint6_linear" x1="44.833" y1="30.396" x2="82.643" y2="29.76" gradientUnits="userSpaceOnUse"><stop stop-color="#211087" stop-opacity=".9"/><stop offset=".109" stop-color="#270D98" stop-opacity=".911"/><stop offset=".3" stop-color="#2E09B0" stop-opacity=".93"/><stop offset=".502" stop-color="#3405C1" stop-opacity=".95"/><stop offset=".724" stop-color="#3704CB" stop-opacity=".972"/><stop offset="1" stop-color="#3803CE"/></linearGradient><linearGradient id="paint7_linear" x1="37.732" y1="48.664" x2="41.903" y2="52.965" gradientUnits="userSpaceOnUse"><stop stop-color="#FA6400"/><stop offset="1" stop-color="#FFB500" stop-opacity=".95"/></linearGradient><linearGradient id="paint8_linear" x1="48.639" y1="48.825" x2="52.81" y2="53.125" gradientUnits="userSpaceOnUse"><stop stop-color="#FA6400"/><stop offset="1" stop-color="#FFB500" stop-opacity=".95"/></linearGradient><linearGradient id="paint9_linear" x1="26.766" y1="48.562" x2="30.937" y2="52.861" gradientUnits="userSpaceOnUse"><stop stop-color="#FA6400"/><stop offset="1" stop-color="#FFB500" stop-opacity=".95"/></linearGradient><linearGradient id="paint10_linear" x1="37.891" y1="37.771" x2="42.062" y2="42.072" gradientUnits="userSpaceOnUse"><stop stop-color="#FA6400"/><stop offset="1" stop-color="#FFB500" stop-opacity=".95"/></linearGradient><linearGradient id="paint11_linear" x1="37.561" y1="59.687" x2="41.732" y2="63.987" gradientUnits="userSpaceOnUse"><stop stop-color="#FA6400"/><stop offset="1" stop-color="#FFB500" stop-opacity=".95"/></linearGradient></defs></svg>