<svg width="80" height="80" fill="none" xmlns="http://www.w3.org/2000/svg"><path d="M40 76c19.98 0 36-16.02 36-36S59.98 4 40 4 4 20.02 4 40s16.02 36 36 36z" fill="url(#paint0_linear)"/><path d="M40 71c17.273 0 31-13.91 31-31C71 22.727 57.091 9 40 9 22.73 9 9.003 22.91 9.003 40 8.82 57.273 22.729 71 40 71z" fill="url(#paint1_linear)"/><path d="M40 60c11.013 0 20-8.987 20-20s-8.987-20-20-20-20 8.987-20 20c0 11.101 8.987 20 20 20z" stroke="#fff" stroke-width="1.44" stroke-miterlimit="10"/><path d="M41.546 32.092V29h-3.092v3.092a6.335 6.335 0 01-6.362 6.362H29v3.092h3.092a6.335 6.335 0 016.362 6.362V51h3.092v-3.092a6.335 6.335 0 016.362-6.362H51v-3.092h-3.18c-3.358 0-6.274-3.004-6.274-6.362z" fill="url(#paint2_linear)"/><path d="M40 9V4m15 9l3-4m9 16l4-3m0 18h5m-9 16l4 2m-16 9l3 4m-18 0v5m-15-9l-3 4m-9-15l-4 2m0-18H4m9-15l-4-3m16-8l-3-5" stroke="#fff" stroke-width=".916"/><path d="M51.5 42c1.5 0 2.5-.96 2.5-2 0-1.2-1.2-2-2.5-2-1.5 0-2.5.96-2.5 2s1.1 2 2.5 2z" fill="url(#paint3_linear)"/><path d="M40 31c1.2 0 2-1.2 2-2.5s-.96-2.5-2-2.5c-1.2 0-2 1.2-2 2.5s.8 2.5 2 2.5z" fill="url(#paint4_linear)"/><path d="M40.009 53C41.203 53 42 52.04 42 51c0-1.2-.956-2-1.991-2-1.195 0-1.992.96-1.992 2-.159 1.04.797 2 1.992 2z" fill="url(#paint5_linear)"/><path d="M29 42c1.2 0 2-.96 2-2 0-1.2-.96-2-2-2-1.2 0-2 .96-2 2s.96 2 2 2z" fill="url(#paint6_linear)"/><defs><linearGradient id="paint0_linear" x1="63.846" y1="13.599" x2="17.338" y2="65.198" gradientUnits="userSpaceOnUse"><stop stop-color="#211087" stop-opacity=".9"/><stop offset=".109" stop-color="#270D98" stop-opacity=".911"/><stop offset=".3" stop-color="#2E09B0" stop-opacity=".93"/><stop offset=".502" stop-color="#3405C1" stop-opacity=".95"/><stop offset=".724" stop-color="#3704CB" stop-opacity=".972"/><stop offset="1" stop-color="#3803CE"/></linearGradient><linearGradient id="paint1_linear" x1="9" y1="71" x2="71.002" y2="11.863" gradientUnits="userSpaceOnUse"><stop stop-color="#EBF1FF" stop-opacity=".5"/><stop offset=".494" stop-color="#DDE7FF"/></linearGradient><linearGradient id="paint2_linear" x1="28.932" y1="39.978" x2="50.975" y2="39.978" gradientUnits="userSpaceOnUse"><stop stop-color="#FA6400"/><stop offset="1" stop-color="#FFB500" stop-opacity=".95"/></linearGradient><linearGradient id="paint3_linear" x1="48.947" y1="40.006" x2="54.079" y2="40.006" gradientUnits="userSpaceOnUse"><stop stop-color="#FA6400"/><stop offset="1" stop-color="#FFB500" stop-opacity=".95"/></linearGradient><linearGradient id="paint4_linear" x1="37.921" y1="28.515" x2="42.028" y2="28.515" gradientUnits="userSpaceOnUse"><stop stop-color="#FA6400"/><stop offset="1" stop-color="#FFB500" stop-opacity=".95"/></linearGradient><linearGradient id="paint5_linear" x1="37.938" y1="50.998" x2="42.027" y2="50.998" gradientUnits="userSpaceOnUse"><stop stop-color="#FA6400"/><stop offset="1" stop-color="#FFB500" stop-opacity=".95"/></linearGradient><linearGradient id="paint6_linear" x1="27.001" y1="40.006" x2="31.106" y2="40.006" gradientUnits="userSpaceOnUse"><stop stop-color="#FA6400"/><stop offset="1" stop-color="#FFB500" stop-opacity=".95"/></linearGradient></defs></svg>