<svg width="80" height="80" fill="none" xmlns="http://www.w3.org/2000/svg"><path d="M58.235 53.233h16.341s1.805-2.205 1.805-5.213c0-3.208-1.805-5.213-1.805-5.213h-16.34v10.426z" fill="url(#paint0_linear)"/><path d="M9.013 26.367v40.601h52.23V26.367" fill="url(#paint1_linear)"/><path d="M44.702 26.366h16.54C61.243 11.829 49.515 0 35.079 0 20.64 0 8.912 11.73 8.912 26.366h35.79z" fill="url(#paint2_linear)"/><path d="M42.797 26.367H55.83c0-11.73-9.324-21.053-20.852-21.053-11.53 0-20.852 9.323-20.852 21.053h28.671z" fill="url(#paint3_linear)"/><path d="M27.058 26.366c0-4.31 3.508-7.82 7.82-7.82 4.31 0 7.819 3.51 7.819 7.82" fill="url(#paint4_linear)"/><path d="M65.955 80H4v-8.32c0-2.708 2.206-4.813 4.812-4.813h52.431c2.707 0 4.812 2.206 4.812 4.812V80h-.1z" fill="#E3ECFF"/><path d="M39.489 74.687h-8.521c-4.311 0-7.82-3.509-7.82-7.82h24.16c0 4.311-3.709 7.82-7.82 7.82z" fill="url(#paint5_linear)"/><path d="M61.143 58.146V37.394c2.807 0 5.213 2.306 5.213 5.213v10.226c.2 2.907-2.306 5.313-5.213 5.313z" fill="url(#paint6_linear)"/><path d="M71.268 18.747H68.56v24.26h2.707v-24.26z" fill="url(#paint7_linear)"/><path d="M70.065 21.855c2.205 0 3.81-1.804 3.81-4.01 0-2.205-1.805-4.01-3.81-4.01-2.206 0-3.81 1.805-3.81 4.01-.1 2.206 1.604 4.01 3.81 4.01z" fill="url(#paint8_linear)"/><path d="M14.025 32.382H24.55v20.852H14.025V32.382z" fill="url(#paint9_linear)"/><path d="M29.765 32.382H40.29v20.852H29.765V32.382z" fill="url(#paint10_linear)"/><path d="M45.303 32.382H55.83v20.852H45.303V32.382z" fill="url(#paint11_linear)"/><path d="M14.025 38.397H24.35m-10.325 8.22H24.35m5.415-8.22H40.09m-10.325 8.22H40.09m5.213-8.22H55.83m-10.527 8.22H55.83" stroke="#D9EAFF" stroke-width="1.091" stroke-miterlimit="10"/><defs><linearGradient id="paint0_linear" x1="58.235" y1="53.233" x2="67.463" y2="37.916" gradientUnits="userSpaceOnUse"><stop stop-color="#EBF1FF"/><stop offset="1" stop-color="#DDE7FF"/></linearGradient><linearGradient id="paint1_linear" x1="35.173" y1="35.119" x2="35.173" y2="64.03" gradientUnits="userSpaceOnUse"><stop stop-color="#211087" stop-opacity=".9"/><stop offset=".109" stop-color="#270D98" stop-opacity=".911"/><stop offset=".3" stop-color="#2E09B0" stop-opacity=".93"/><stop offset=".502" stop-color="#3405C1" stop-opacity=".95"/><stop offset=".724" stop-color="#3704CB" stop-opacity=".972"/><stop offset="1" stop-color="#3803CE"/></linearGradient><linearGradient id="paint2_linear" x1="35.172" y1="-.652" x2="35.172" y2="21.196" gradientUnits="userSpaceOnUse"><stop stop-color="#211087" stop-opacity=".9"/><stop offset=".109" stop-color="#270D98" stop-opacity=".911"/><stop offset=".3" stop-color="#2E09B0" stop-opacity=".93"/><stop offset=".502" stop-color="#3405C1" stop-opacity=".95"/><stop offset=".724" stop-color="#3704CB" stop-opacity=".972"/><stop offset="1" stop-color="#3803CE"/></linearGradient><linearGradient id="paint3_linear" x1="14.126" y1="26.366" x2="31.554" y2="-6.563" gradientUnits="userSpaceOnUse"><stop stop-color="#EBF1FF" stop-opacity=".5"/><stop offset=".494" stop-color="#DDE7FF"/></linearGradient><linearGradient id="paint4_linear" x1="27.087" y1="22.456" x2="42.754" y2="22.456" gradientUnits="userSpaceOnUse"><stop stop-color="#FA6400"/><stop offset="1" stop-color="#FFB500" stop-opacity=".95"/></linearGradient><linearGradient id="paint5_linear" x1="35.183" y1="67.382" x2="35.183" y2="72.032" gradientUnits="userSpaceOnUse"><stop stop-color="#211087" stop-opacity=".9"/><stop offset=".109" stop-color="#270D98" stop-opacity=".911"/><stop offset=".3" stop-color="#2E09B0" stop-opacity=".93"/><stop offset=".502" stop-color="#3405C1" stop-opacity=".95"/><stop offset=".724" stop-color="#3704CB" stop-opacity=".972"/><stop offset="1" stop-color="#3803CE"/></linearGradient><linearGradient id="paint6_linear" x1="61.172" y1="47.755" x2="66.356" y2="47.755" gradientUnits="userSpaceOnUse"><stop stop-color="#211087" stop-opacity=".9"/><stop offset=".109" stop-color="#270D98" stop-opacity=".911"/><stop offset=".3" stop-color="#2E09B0" stop-opacity=".93"/><stop offset=".502" stop-color="#3405C1" stop-opacity=".95"/><stop offset=".724" stop-color="#3704CB" stop-opacity=".972"/><stop offset="1" stop-color="#3803CE"/></linearGradient><linearGradient id="paint7_linear" x1="68.561" y1="43.008" x2="73.672" y2="42.464" gradientUnits="userSpaceOnUse"><stop stop-color="#EBF1FF"/><stop offset="1" stop-color="#DDE7FF"/></linearGradient><linearGradient id="paint8_linear" x1="68.351" y1="21.9" x2="71.672" y2="13.893" gradientUnits="userSpaceOnUse"><stop stop-color="#FA6400"/><stop offset="1" stop-color="#FFB500" stop-opacity=".95"/></linearGradient><linearGradient id="paint9_linear" x1="14.017" y1="42.828" x2="24.461" y2="42.828" gradientUnits="userSpaceOnUse"><stop stop-color="#fff"/><stop offset="1" stop-color="#F2F7FF"/></linearGradient><linearGradient id="paint10_linear" x1="29.683" y1="42.828" x2="40.127" y2="42.828" gradientUnits="userSpaceOnUse"><stop stop-color="#fff"/><stop offset="1" stop-color="#F2F7FF"/></linearGradient><linearGradient id="paint11_linear" x1="45.347" y1="42.828" x2="55.792" y2="42.828" gradientUnits="userSpaceOnUse"><stop stop-color="#fff"/><stop offset="1" stop-color="#F2F7FF"/></linearGradient></defs></svg>