<svg width="80" height="80" fill="none" xmlns="http://www.w3.org/2000/svg"><path d="M10.107 75.456l59.248.446c3.428.026 6.127-2.63 6.153-6.056l.446-59.205c.025-3.426-2.633-6.123-6.061-6.149l-59.248-.446c-3.429-.026-6.128 2.63-6.153 6.056l-.448 59.42c-.022 2.998 2.634 5.908 6.063 5.934z" fill="#E3ECFF"/><path d="M33.86 22.85L22.91 11.633 11.79 22.577l10.953 11.11L33.861 22.85z" fill="url(#paint0_linear)"/><path d="M65.523 58.315c.863-.85 1.625-2.344 1.635-3.735.023-2.998-2.315-5.585-5.315-5.608-2.357-.018-4.296 1.36-5.061 3.388a5.416 5.416 0 00-5.01-3.464c-3-.022-5.375 2.422-5.399 5.527-.01 1.392.514 2.895 1.579 3.76l8.718 8.952 8.853-8.82c-.002.214-.002.214 0 0z" fill="url(#paint1_linear)"/><path d="M54.461 33.284l7.5.056-3.723-3.56-3.777 3.504z" fill="url(#paint2_linear)"/><path d="M63.137 19.43c.219-.533.33-1.068.335-1.817.022-2.891-2.318-5.157-5.318-5.18-3-.022-5.375 2.316-5.396 5.1-.004.534.205 1.285.308 1.822-2.893-.022-5.375 2.315-5.395 5.098-.022 2.89 2.318 5.157 5.318 5.18 2.357.017 4.295-1.253 5.06-3.174.735 1.932 2.654 3.232 5.01 3.25 3 .022 5.376-2.316 5.397-5.1.02-2.783-2.426-5.157-5.319-5.179z" fill="url(#paint3_linear)"/><path d="M18.732 68.348l7.5.056-3.724-3.561-3.776 3.505z" fill="url(#paint4_linear)"/><path d="M31.253 56.129c-.108 0-.108 0 0 0l-8.721-8.631-8.85 8.499c-.864.85-1.623 2.129-1.634 3.52-.022 2.891 2.318 5.157 5.318 5.18 2.357.018 4.296-1.253 5.06-3.174.736 1.933 2.654 3.232 5.011 3.25 3 .022 5.375-2.315 5.396-5.099-.097-1.393-.623-2.681-1.58-3.545z" fill="url(#paint5_linear)"/><path d="M40.214 4.483L39.675 76m35.949-35.811L4.269 39.65" stroke="#fff" stroke-width="1.034" stroke-miterlimit="10"/><defs><linearGradient id="paint0_linear" x1="17.354" y1="28.082" x2="28.41" y2="17.182" gradientUnits="userSpaceOnUse"><stop stop-color="#FA6400"/><stop offset="1" stop-color="#FFB500" stop-opacity=".95"/></linearGradient><linearGradient id="paint1_linear" x1="50.455" y1="60.785" x2="63.184" y2="48.239" gradientUnits="userSpaceOnUse"><stop stop-color="#FA6400"/><stop offset="1" stop-color="#FFB500" stop-opacity=".95"/></linearGradient><linearGradient id="paint2_linear" x1="54.504" y1="31.512" x2="61.999" y2="31.568" gradientUnits="userSpaceOnUse"><stop stop-color="#211087" stop-opacity=".9"/><stop offset=".109" stop-color="#270D98" stop-opacity=".911"/><stop offset=".3" stop-color="#2E09B0" stop-opacity=".93"/><stop offset=".502" stop-color="#3405C1" stop-opacity=".95"/><stop offset=".724" stop-color="#3704CB" stop-opacity=".972"/><stop offset="1" stop-color="#3803CE"/></linearGradient><linearGradient id="paint3_linear" x1="47.802" y1="21.029" x2="68.502" y2="21.184" gradientUnits="userSpaceOnUse"><stop stop-color="#211087" stop-opacity=".9"/><stop offset=".109" stop-color="#270D98" stop-opacity=".911"/><stop offset=".3" stop-color="#2E09B0" stop-opacity=".93"/><stop offset=".502" stop-color="#3405C1" stop-opacity=".95"/><stop offset=".724" stop-color="#3704CB" stop-opacity=".972"/><stop offset="1" stop-color="#3803CE"/></linearGradient><linearGradient id="paint4_linear" x1="18.698" y1="66.551" x2="26.087" y2="66.607" gradientUnits="userSpaceOnUse"><stop stop-color="#211087" stop-opacity=".9"/><stop offset=".109" stop-color="#270D98" stop-opacity=".911"/><stop offset=".3" stop-color="#2E09B0" stop-opacity=".93"/><stop offset=".502" stop-color="#3405C1" stop-opacity=".95"/><stop offset=".724" stop-color="#3704CB" stop-opacity=".972"/><stop offset="1" stop-color="#3803CE"/></linearGradient><linearGradient id="paint5_linear" x1="12.204" y1="56.072" x2="32.905" y2="56.228" gradientUnits="userSpaceOnUse"><stop stop-color="#211087" stop-opacity=".9"/><stop offset=".109" stop-color="#270D98" stop-opacity=".911"/><stop offset=".3" stop-color="#2E09B0" stop-opacity=".93"/><stop offset=".502" stop-color="#3405C1" stop-opacity=".95"/><stop offset=".724" stop-color="#3704CB" stop-opacity=".972"/><stop offset="1" stop-color="#3803CE"/></linearGradient></defs></svg>